<?xml version="1.0" encoding="iso-8859-1"?>
<!-- Generator: Adobe Illustrator 19.0.0, SVG Export Plug-In . SVG Version: 6.00 Build 0)  -->
<svg version="1.1" id="Capa_1" xmlns="http://www.w3.org/2000/svg" xmlns:xlink="http://www.w3.org/1999/xlink" x="0px" y="0px"
	 viewBox="0 0 512.001 512.001" style="enable-background:new 0 0 512.001 512.001;" xml:space="preserve">
<path style="fill:#F96726;" d="M414.161,242.08c0,8.06-0.598,15.978-1.764,23.714c-3.741,24.89-13.292,47.894-27.212,67.563
	l-261.493-4.593c-12.227-18.624-20.632-39.986-24.089-62.981c-1.166-7.736-1.764-15.644-1.764-23.704
	c0-87.354,70.808-158.161,158.161-158.161C343.343,83.919,414.161,154.726,414.161,242.08z"/>
<path style="fill:#FF9D00;" d="M412.397,265.794c-3.741,24.89-13.292,47.894-27.212,67.563L251.944,469.183L123.692,328.764
	c-12.227-18.624-20.632-39.986-24.089-62.981c11.446-76.1,77.104-134.447,156.397-134.447S400.961,189.684,412.397,265.794z"/>
<g>
	<polyline style="fill:#302C3E;" points="174.51,504.395 339.38,267.641 504.391,504.395 	"/>
	<polyline style="fill:#302C3E;" points="7.606,504.394 187.686,231.941 384.251,504.395 	"/>
</g>
<g>
	<polygon style="fill:#FCC368;" points="147.183,293.222 166.781,355.632 201.252,339.41 256.622,386.481 277.524,356.463 
		187.686,231.941 	"/>
	<polygon style="fill:#FCC368;" points="401.416,356.649 373.607,416.463 322.914,394.158 288.443,428.629 220.642,438.15 
		339.38,267.641 	"/>
</g>
<path d="M94.308,61.225c1.504,1.792,3.658,2.716,5.829,2.716c1.725,0,3.459-0.584,4.884-1.779c3.217-2.7,3.637-7.495,0.937-10.712
	L65.066,2.718c-2.699-3.217-7.496-3.637-10.712-0.937c-3.217,2.7-3.637,7.495-0.937,10.712L94.308,61.225z"/>
<path d="M500.592,392.076c1.198,0.691,2.505,1.02,3.795,1.02c2.628,0,5.184-1.364,6.592-3.803c2.1-3.637,0.854-8.287-2.783-10.387
	l-104.95-60.592c6.581-12.67,11.456-26.086,14.549-39.981l85.279,15.035c0.447,0.079,0.891,0.117,1.33,0.117
	c3.62,0,6.828-2.596,7.479-6.285c0.73-4.136-2.032-8.079-6.167-8.808l-85.304-15.041c0.894-7.008,1.353-14.107,1.353-21.27
	c0-7.205-0.464-14.303-1.361-21.269l85.311-15.042c4.136-0.729,6.897-4.673,6.167-8.808c-0.729-4.137-4.673-6.895-8.808-6.168
	l-85.311,15.042c-3.151-14.071-8.094-27.472-14.58-39.951l105.013-60.628c3.637-2.1,4.883-6.75,2.783-10.387
	c-2.099-3.637-6.751-4.883-10.387-2.783l-105.029,60.638c-7.704-11.991-16.916-22.922-27.356-32.541l90.365-107.688
	c2.7-3.217,2.28-8.013-0.937-10.712c-3.218-2.7-8.013-2.28-10.712,0.937l-90.36,107.681c-11.226-8.594-23.574-15.79-36.79-21.319
	l28.707-78.874c1.437-3.946-0.599-8.31-4.544-9.746c-3.948-1.438-8.311,0.598-9.746,4.544l-28.7,78.856
	c-13.323-4.176-27.366-6.707-41.888-7.366V7.607c0-4.199-3.404-7.604-7.604-7.604c-4.2,0-7.604,3.405-7.604,7.604v68.889
	c-14.524,0.659-28.569,3.191-41.893,7.369l-28.702-78.86c-1.437-3.945-5.796-5.983-9.746-4.544
	c-3.946,1.437-5.981,5.799-4.544,9.746l28.708,78.878c-13.215,5.53-25.561,12.726-36.787,21.32l-32.292-38.484
	c-2.698-3.217-7.496-3.637-10.712-0.937c-3.217,2.7-3.637,7.495-0.937,10.712l32.299,38.491
	c-10.438,9.616-19.647,20.547-27.35,32.536L11.408,92.085c-3.639-2.101-8.288-0.854-10.387,2.783
	c-2.1,3.637-0.854,8.287,2.783,10.387l105.013,60.628c-6.486,12.477-11.429,25.879-14.58,39.95l-85.31-15.039
	c-4.141-0.729-8.079,2.033-8.808,6.168c-0.729,4.136,2.032,8.079,6.167,8.808l85.311,15.042c-0.896,6.965-1.361,14.063-1.361,21.269
	c0,7.152,0.483,14.249,1.383,21.265L6.287,278.391c-4.136,0.729-6.897,4.673-6.167,8.808c0.651,3.689,3.859,6.285,7.479,6.285
	c0.439,0,0.883-0.039,1.33-0.117l85.295-15.038c3.097,13.883,7.985,27.302,14.557,39.969L3.804,378.905
	c-3.637,2.1-4.883,6.75-2.783,10.387c1.408,2.439,3.964,3.803,6.592,3.803c1.29,0,2.597-0.328,3.795-1.02l99.163-57.251
	L1.262,500.202c-2.316,3.504-1.352,8.22,2.15,10.536c1.291,0.854,2.747,1.261,4.186,1.261c2.468,0,4.888-1.199,6.351-3.412
	l130.767-197.842l14.81,47.165c0.657,2.095,2.189,3.803,4.2,4.685c2.01,0.882,4.305,0.852,6.292-0.083l30.039-14.136l46.38,39.427
	l-78.166,112.248c-2.4,3.446-1.552,8.185,1.894,10.586c1.325,0.922,2.839,1.365,4.338,1.365c2.404,0,4.769-1.138,6.246-3.259
	l44.234-63.522l64.516-9.06c1.635-0.23,3.151-0.985,4.32-2.153l30.793-30.793l45.932,20.21c3.789,1.666,8.212-0.001,9.957-3.754
	l22.236-47.825l95.415,136.9c1.478,2.121,3.842,3.258,6.245,3.257c1.499,0,3.017-0.443,4.34-1.367
	c3.445-2.402,4.292-7.141,1.891-10.587L394.42,333.313c0.405-0.611,0.804-1.226,1.199-1.842L500.592,392.076z M206.177,333.617
	c-2.272-1.932-5.466-2.356-8.163-1.087l-26.589,12.512l-15.903-50.646l32.439-49.079l80.244,111.226l-13.037,18.722L206.177,333.617
	z M369.852,406.504l-43.875-19.305c-2.871-1.263-6.222-0.635-8.439,1.584l-32.671,32.671l-48.027,6.744l65.48-94.03
	c2.4-3.446,1.552-8.185-1.894-10.586c-3.449-2.4-8.186-1.551-10.585,1.895l-12.424,17.841l-83.563-115.825
	c-1.46-2.026-3.842-3.203-6.321-3.153c-2.498,0.052-4.811,1.326-6.189,3.41l-57.348,86.765
	c-12.161-22.112-18.552-46.92-18.552-72.434c0-83.017,67.54-150.557,150.557-150.557s150.557,67.54,150.557,150.557
	c0,27.66-7.434,54.298-21.573,77.694l-39.365-56.481c-1.422-2.041-3.752-3.257-6.24-3.257c-2.487,0-4.817,1.218-6.237,3.259
	l-27.034,38.821c-2.4,3.446-1.552,8.185,1.894,10.586c3.447,2.4,8.185,1.551,10.585-1.895l20.798-29.865l53.294,76.466
	L369.852,406.504z"/>
<g>
</g>
<g>
</g>
<g>
</g>
<g>
</g>
<g>
</g>
<g>
</g>
<g>
</g>
<g>
</g>
<g>
</g>
<g>
</g>
<g>
</g>
<g>
</g>
<g>
</g>
<g>
</g>
<g>
</g>
</svg>
