<?xml version="1.0" encoding="iso-8859-1"?>
<!-- Generator: Adobe Illustrator 19.0.0, SVG Export Plug-In . SVG Version: 6.00 Build 0)  -->
<svg version="1.1" id="Capa_1" xmlns="http://www.w3.org/2000/svg" xmlns:xlink="http://www.w3.org/1999/xlink" x="0px" y="0px"
	 viewBox="0 0 512.001 512.001" style="enable-background:new 0 0 512.001 512.001;" xml:space="preserve">
<path style="fill:#D3D3D3;" d="M311.934,63.482c0,30.972-25.123,55.988-55.987,55.988s-55.988-25.016-55.988-55.988
	c0-5.306,0.758-10.396,2.166-15.161c6.607-23.499,28.265-40.718,53.823-40.718s47.216,17.219,53.821,40.718
	C311.176,53.087,311.934,58.176,311.934,63.482z"/>
<path style="fill:#E6E8E3;" d="M232.51,63.482c0-5.306,0.758-10.396,2.166-15.161c5.149-18.317,19.443-32.814,37.601-38.32
	c-5.138-1.558-10.584-2.398-16.221-2.398c-25.557,0-47.217,17.219-53.822,40.718c-1.408,4.765-2.166,9.854-2.166,15.161
	c0,30.972,25.123,55.988,55.988,55.988c5.639,0,11.083-0.843,16.221-2.398C249.295,110.121,232.51,88.795,232.51,63.482z"/>
<g>
	<path style="fill:#D3D3D3;" d="M255.947,144.81c0,30.972-25.123,55.988-55.987,55.988s-55.988-25.016-55.988-55.988
		c0-5.306,0.758-10.396,2.166-15.161c6.606-23.499,28.264-40.718,53.822-40.718s47.216,17.219,53.821,40.718
		C255.188,134.414,255.947,139.505,255.947,144.81z"/>
	<path style="fill:#D3D3D3;" d="M367.921,144.81c0,30.972-25.123,55.988-55.987,55.988s-55.988-25.016-55.988-55.988
		c0-5.306,0.758-10.396,2.166-15.161c6.606-23.499,28.264-40.718,53.822-40.718s47.216,17.219,53.821,40.718
		C367.163,134.414,367.921,139.505,367.921,144.81z"/>
	<path style="fill:#D3D3D3;" d="M423.8,224.189c0,30.972-25.123,55.988-55.987,55.988s-55.988-25.016-55.988-55.988
		c0-5.306,0.758-10.396,2.165-15.161c6.606-23.499,28.264-40.718,53.822-40.718c25.557,0,47.216,17.219,53.821,40.718
		C423.042,213.793,423.8,218.883,423.8,224.189z"/>
</g>
<g>
	<path style="fill:#E6E8E3;" d="M288.389,144.81c0-5.306,0.758-10.396,2.165-15.161c5.149-18.317,19.443-32.814,37.601-38.32
		c-5.138-1.558-10.584-2.398-16.221-2.398c-25.557,0-47.217,17.219-53.822,40.718c-1.408,4.765-2.166,9.854-2.166,15.161
		c0,30.972,25.124,55.988,55.988,55.988c5.639,0,11.083-0.843,16.221-2.398C305.174,191.45,288.389,170.124,288.389,144.81z"/>
	<path style="fill:#E6E8E3;" d="M176.522,144.81c0-5.306,0.758-10.396,2.166-15.161c5.149-18.317,19.443-32.814,37.601-38.32
		c-5.138-1.558-10.584-2.398-16.221-2.398c-25.557,0-47.217,17.219-53.822,40.718c-1.408,4.765-2.166,9.854-2.166,15.161
		c0,30.972,25.123,55.988,55.988,55.988c5.639,0,11.083-0.843,16.221-2.398C193.308,191.45,176.522,170.124,176.522,144.81z"/>
</g>
<g>
	<path style="fill:#D3D3D3;" d="M311.825,224.189c0,30.972-25.123,55.988-55.987,55.988s-55.988-25.016-55.988-55.988
		c0-5.306,0.758-10.396,2.166-15.161c6.606-23.499,28.264-40.718,53.822-40.718s47.216,17.219,53.821,40.718
		C311.067,213.793,311.825,218.883,311.825,224.189z"/>
	<path style="fill:#D3D3D3;" d="M199.85,224.189c0,30.972-25.124,55.988-55.987,55.988c-30.864,0-55.988-25.016-55.988-55.988
		c0-5.306,0.758-10.396,2.166-15.161c6.606-23.499,28.264-40.718,53.822-40.718s47.216,17.219,53.821,40.718
		C199.093,213.793,199.85,218.883,199.85,224.189z"/>
</g>
<rect x="148.941" y="300.871" style="fill:#9E5038;" width="214.119" height="203.524"/>
<g>
	<path style="fill:#E6E8E3;" d="M120.535,224.189c0-5.306,0.758-10.396,2.166-15.161c5.149-18.317,19.443-32.814,37.601-38.32
		c-5.138-1.558-10.584-2.398-16.221-2.398c-25.557,0-47.217,17.219-53.822,40.718c-1.408,4.765-2.166,9.854-2.166,15.161
		c0,30.972,25.123,55.988,55.988,55.988c5.639,0,11.083-0.844,16.221-2.398C137.321,270.828,120.535,249.502,120.535,224.189z"/>
	<path style="fill:#E6E8E3;" d="M232.51,224.189c0-5.306,0.758-10.396,2.166-15.161c5.149-18.317,19.443-32.814,37.601-38.32
		c-5.138-1.558-10.584-2.398-16.221-2.398c-25.557,0-47.217,17.219-53.822,40.718c-1.408,4.765-2.166,9.854-2.166,15.161
		c0,30.972,25.123,55.988,55.988,55.988c5.639,0,11.083-0.844,16.221-2.398C249.295,270.828,232.51,249.502,232.51,224.189z"/>
	<path style="fill:#E6E8E3;" d="M344.376,224.189c0-5.306,0.758-10.396,2.165-15.161c5.149-18.317,19.443-32.814,37.601-38.32
		c-5.138-1.558-10.584-2.398-16.221-2.398c-25.557,0-47.217,17.219-53.822,40.718c-1.408,4.765-2.165,9.854-2.165,15.161
		c0,30.972,25.123,55.988,55.988,55.988c5.639,0,11.083-0.844,16.221-2.398C361.161,270.828,344.376,249.502,344.376,224.189z"/>
</g>
<rect x="193.022" y="357.645" style="fill:#B76748;" width="170.038" height="146.75"/>
<rect x="71.903" y="253.07" style="fill:#9E5038;" width="368.199" height="72.194"/>
<rect x="148.941" y="253.07" style="fill:#B76748;" width="291.159" height="72.194"/>
<circle style="fill:#0C0E23;" cx="256.001" cy="434.685" r="40.614"/>
<path d="M440.098,245.463h-12.367c2.42-6.768,3.673-13.959,3.673-21.275c0-33.207-25.546-60.533-57.983-63.337
	c1.384-5.186,2.105-10.545,2.105-16.042c0-33.37-25.842-60.799-58.561-63.374c1.698-5.75,2.574-11.716,2.574-17.846
	C319.538,28.527,291.011,0,255.947,0c-35.004,0-63.482,28.527-63.482,63.591c0,6.131,0.876,12.095,2.574,17.846
	c-32.72,2.575-58.561,30.004-58.561,63.374c0,5.468,0.712,10.829,2.083,16.043c-32.487,2.809-58.071,30.134-58.071,63.336
	c0,7.339,1.262,14.53,3.7,21.275H71.903c-4.199,0-7.604,3.404-7.604,7.604v72.195c0,4.199,3.404,7.604,7.604,7.604h69.433v36.436
	c0,4.199,3.404,7.604,7.604,7.604l0,0c4.199,0,7.604-3.404,7.604-7.604v-36.436h198.913v163.926H156.544v-92.005
	c0-4.199-3.404-7.604-7.604-7.604l0,0c-4.199,0-7.604,3.404-7.604,7.604v99.609c0,4.199,3.404,7.604,7.604,7.604h214.121
	c4.199,0,7.604-3.404,7.604-7.604V332.865h69.433c4.199,0,7.604-3.404,7.604-7.604v-72.195
	C447.702,248.867,444.298,245.463,440.098,245.463z M360.317,144.81c0,5.802-1.043,11.399-3.072,16.702
	c-19.599,3.328-36.176,15.641-45.312,32.552c-9.136-16.91-25.712-29.223-45.312-32.552c-2.029-5.302-3.072-10.9-3.072-16.702
	c0-7.916,1.847-15.38,5.49-22.185c0.021-0.039,0.042-0.077,0.061-0.116c7.365-14.348,21.336-23.952,37.373-25.693
	c0.122-0.013,0.243-0.029,0.365-0.049c1.431-0.226,3.145-0.34,5.095-0.34C338.613,96.426,360.317,118.131,360.317,144.81z
	 M299.34,245.463h-86.679c-3.261-6.546-4.99-13.816-4.99-21.275c0-26.679,21.656-48.384,48.275-48.384
	c26.679,0,48.383,21.705,48.383,48.384C304.33,231.648,302.602,238.917,299.34,245.463z M255.947,15.207
	c26.679,0,48.383,21.705,48.383,48.384c0,6.526-1.296,12.807-3.821,18.729c-19.009,3.394-35.379,15.266-44.509,32.438
	c-9.128-17.174-25.498-29.045-44.509-32.439c-2.525-5.923-3.821-12.202-3.821-18.729C207.672,36.912,229.327,15.207,255.947,15.207z
	 M200.068,96.426c2.006,0,3.625,0.108,5.095,0.34c0.122,0.019,0.243,0.035,0.365,0.049c16.038,1.741,30.009,11.346,37.395,25.735
	c3.546,6.805,5.42,14.502,5.42,22.259c0,5.745-1.023,11.341-3.013,16.694c-19.579,3.317-36.141,15.63-45.269,32.547
	c-9.147-16.922-25.745-29.238-45.365-32.55c-1.988-5.353-3.011-10.947-3.011-16.691C151.684,118.131,173.389,96.426,200.068,96.426z
	 M95.696,224.189c0-26.679,21.705-48.383,48.383-48.383s48.384,21.705,48.384,48.383c0,7.501-1.751,14.77-5.055,21.275h-86.657
	C97.447,238.96,95.696,231.69,95.696,224.189z M432.494,317.658h-69.433H148.94H79.507V260.67h279.272
	c4.199,0,7.604-3.404,7.604-7.604l0,0c0-4.199-3.404-7.604-7.604-7.604h-34.25c-3.261-6.547-4.991-13.816-4.991-21.275
	c0-26.679,21.705-48.384,48.384-48.384c26.619,0,48.275,21.705,48.275,48.384c0,7.459-1.729,14.728-4.99,21.275h-16.943
	c-4.199,0-7.604,3.404-7.604,7.604l0,0c0,4.199,3.404,7.604,7.604,7.604h38.231V317.658z"/>
<path d="M304.215,434.682c0-26.585-21.628-48.213-48.213-48.213s-48.214,21.628-48.214,48.213c0,26.585,21.629,48.213,48.214,48.213
	C282.587,482.895,304.215,461.267,304.215,434.682z M222.995,434.682c0-18.199,14.807-33.006,33.007-33.006
	s33.006,14.807,33.006,33.006c0,18.199-14.806,33.006-33.006,33.006S222.995,452.882,222.995,434.682z"/>
<g>
</g>
<g>
</g>
<g>
</g>
<g>
</g>
<g>
</g>
<g>
</g>
<g>
</g>
<g>
</g>
<g>
</g>
<g>
</g>
<g>
</g>
<g>
</g>
<g>
</g>
<g>
</g>
<g>
</g>
</svg>
