<?xml version="1.0" encoding="iso-8859-1"?>
<!-- Generator: Adobe Illustrator 19.0.0, SVG Export Plug-In . SVG Version: 6.00 Build 0)  -->
<svg version="1.1" id="Capa_1" xmlns="http://www.w3.org/2000/svg" xmlns:xlink="http://www.w3.org/1999/xlink" x="0px" y="0px"
	 viewBox="0 0 512 512" style="enable-background:new 0 0 512 512;" xml:space="preserve">
<g>
	<polyline style="fill:#ED1817;" points="198.38,241.464 246.875,198.48 246.875,240.056 	"/>
	<polyline style="fill:#ED1817;" points="444.436,241.031 430.384,151.155 504.396,151.155 504.396,307.328 459.746,307.328 	"/>
</g>
<polygon style="fill:#E6E6E6;" points="504.396,151.153 504.396,186.475 435.91,186.475 430.384,151.153 "/>
<path style="fill:#ED1817;" d="M211.39,332.309h-30.907l-143.69-33.796c24.3-48.52,168.221-67.145,265.895-54.81
	c0.064,0.008,0.13,0.016,0.198,0.025c15.465,2.001,29.185-10.019,29.185-25.613v-38.464
	c137.262,8.726,127.673,127.673,127.673,127.673"/>
<g>
	<path style="fill:#E6E6E6;" d="M361.646,277.696h-36.18c-42.794,0-83.443,18.741-111.233,51.284l-2.844,3.33h147.77"/>
	<polyline style="fill:#E6E6E6;" points="82.397,289.788 7.604,303.222 7.604,326.033 82.812,326.033 	"/>
</g>
<g>
	<circle style="fill:#2C4046;" cx="132.978" cy="307.322" r="53.522"/>
	<circle style="fill:#2C4046;" cx="406.224" cy="307.322" r="53.522"/>
</g>
<g>
	<circle style="fill:#9AA7B8;" cx="132.978" cy="307.322" r="20.93"/>
	<circle style="fill:#9AA7B8;" cx="406.224" cy="307.322" r="20.93"/>
</g>
<path d="M132.977,278.789c-15.734,0-28.535,12.8-28.535,28.535c0,15.734,12.8,28.534,28.535,28.534s28.535-12.8,28.535-28.534
	C161.512,291.59,148.711,278.789,132.977,278.789z M132.977,320.65c-7.348,0-13.327-5.978-13.327-13.326s5.978-13.327,13.327-13.327
	c7.349,0,13.327,5.979,13.327,13.327S140.326,320.65,132.977,320.65z"/>
<path d="M406.222,278.789c-15.734,0-28.535,12.8-28.535,28.535c0,15.734,12.8,28.534,28.535,28.534
	c15.735,0,28.535-12.8,28.535-28.534C434.757,291.59,421.957,278.789,406.222,278.789z M406.222,320.65
	c-7.348,0-13.327-5.978-13.327-13.326s5.978-13.327,13.327-13.327c7.349,0,13.327,5.979,13.327,13.327
	S413.571,320.65,406.222,320.65z"/>
<path d="M512,211.155v-60c0-4.199-3.405-7.604-7.604-7.604h-73.814c-1.368,0-2.739,0.292-3.928,0.971
	c-2.849,1.629-4.259,4.757-3.783,7.808l9.313,59.565c-23.313-23.713-56.783-37.108-99.63-39.833
	c-3.173-0.204-6.287,1.609-7.569,4.816c-0.371,0.927-0.517,1.929-0.517,2.928v37.958c0,3.487-0.862,6.955-2.706,9.915
	c-3.894,6.249-10.936,9.408-17.877,8.511l-0.242-0.031c-15.568-1.966-32.153-3.155-49.163-3.587v-33.869
	c0-2.407-1.021-4.756-2.928-6.225c-2.981-2.295-7.037-2.068-9.719,0.31l-46.547,41.259c-18.67,1.391-37.054,3.647-54.399,6.754
	C70.685,253.38,42.932,274.335,32.296,291.06l-26.035,4.676C2.637,296.388,0,299.54,0,303.222v22.812
	c0,4.199,3.405,7.604,7.604,7.604h70.211c9.852,20.57,30.874,34.812,55.163,34.812c21.729,0,40.833-11.406,51.674-28.536h26.738
	h66.411c4.199,0,7.604-3.405,7.604-7.604l0,0c0-4.199-3.405-7.604-7.604-7.604h-49.169c25.791-25.181,60.431-39.406,96.834-39.406
	h23.752c-2.651,6.839-4.121,14.26-4.121,22.024c0,6.039,0.893,11.868,2.532,17.382h-34.342c-4.199,0-7.604,3.405-7.604,7.604l0,0
	c0,4.199,3.405,7.604,7.604,7.604h41.261c10.842,17.13,29.945,28.536,51.674,28.536c31.127,0,56.876-23.393,60.635-53.518h37.539
	c4.199,0,7.604-3.405,7.604-7.604v-60.687c0-4.199-3.405-7.604-7.604-7.604l0,0c-4.199,0-7.604,3.405-7.604,7.604v53.083H467.48
	c-0.253-12.36-2.63-36.81-15.742-61.22l-6.945-44.421h51.999v17.072c0,4.199,3.405,7.604,7.604,7.604l0,0
	C508.595,218.759,512,215.354,512,211.155z M239.271,215.381v17.009c-6.5,0.006-13.035,0.122-19.575,0.343L239.271,215.381z
	 M82.68,272.645c-2.252,3.256-4.195,6.738-5.79,10.407l-19.504,3.503C64.003,281.568,72.503,276.9,82.68,272.645z M15.208,318.43
	v-8.848l57.186-10.271c-0.346,2.625-0.542,5.295-0.542,8.014c0,3.794,0.365,7.502,1.03,11.106H15.208z M132.977,353.241
	c-25.319,0-45.918-20.599-45.918-45.918s20.599-45.918,45.918-45.918s45.918,20.599,45.918,45.918S158.296,353.241,132.977,353.241z
	 M325.467,270.092c-45.086,0-87.738,19.664-117.016,53.951l-0.567,0.663h-16.313c1.638-5.513,2.532-11.344,2.532-17.382
	c0-23.628-13.484-44.152-33.153-54.322c46.102-6.506,97.497-7.222,140.811-1.751l0.15,0.019c9.552,1.235,19.176-1.7,26.407-8.055
	c7.218-6.344,11.357-15.493,11.357-25.1v-30.214c37.691,3.794,66.542,16.949,85.838,39.16c9.065,10.436,15.079,21.859,19.066,32.716
	c-10.496-8.484-23.84-13.58-38.356-13.58c-19.701,0-37.244,9.378-48.43,23.894H325.467z M406.222,353.241
	c-25.319,0-45.918-20.599-45.918-45.918s20.599-45.918,45.918-45.918s45.918,20.599,45.918,45.918S431.542,353.241,406.222,353.241z
	 M442.415,178.875l-3.145-20.115h57.522v20.115H442.415z"/>
<g>
</g>
<g>
</g>
<g>
</g>
<g>
</g>
<g>
</g>
<g>
</g>
<g>
</g>
<g>
</g>
<g>
</g>
<g>
</g>
<g>
</g>
<g>
</g>
<g>
</g>
<g>
</g>
<g>
</g>
</svg>
