<?xml version="1.0" encoding="iso-8859-1"?>
<!-- Generator: Adobe Illustrator 19.0.0, SVG Export Plug-In . SVG Version: 6.00 Build 0)  -->
<svg version="1.1" id="Capa_1" xmlns="http://www.w3.org/2000/svg" xmlns:xlink="http://www.w3.org/1999/xlink" x="0px" y="0px"
	 viewBox="0 0 512 512" style="enable-background:new 0 0 512 512;" xml:space="preserve">
<g>
	<rect x="278.398" y="97.427" style="fill:#CFD8DD;" width="36.886" height="59.543"/>
	<rect x="348.212" y="97.427" style="fill:#CFD8DD;" width="36.886" height="59.543"/>
</g>
<g>
	<rect x="278.398" y="97.427" style="fill:#E30E08;" width="36.886" height="21.94"/>
	<rect x="348.212" y="97.427" style="fill:#E30E08;" width="36.886" height="21.94"/>
</g>
<g>
	<polyline style="fill:#E3E8EC;" points="127.93,240.877 150.523,207.479 466.311,207.479 476.134,240.877 	"/>
	<polyline style="fill:#E3E8EC;" points="170.17,207.479 192.762,174.081 456.489,174.081 466.311,207.479 	"/>
	<polyline style="fill:#E3E8EC;" points="227.961,174.081 250.553,140.684 424.223,140.684 434.046,174.081 	"/>
</g>
<path style="fill:#CFD8DD;" d="M504.367,240.877H7.633l19.529,67.117c4.436,15.243,14.164,28.404,27.437,37.113l0,0
	c13.484,8.849,23.303,22.285,27.638,37.82l8.831,31.643h383.077L504.367,240.877z"/>
<path d="M510.208,235.964c-1.451-1.724-3.589-2.72-5.842-2.72h-22.52l-8.211-27.918l-9.823-33.398
	c-0.955-3.249-3.937-5.48-7.323-5.48h-16.73l-8.212-27.918c-0.955-3.249-3.937-5.48-7.323-5.48h-31.492V97.43
	c0-4.216-3.417-7.634-7.634-7.634h-36.886c-4.217,0-7.634,3.418-7.634,7.634v35.62h-17.655V97.43c0-4.216-3.417-7.634-7.634-7.634
	h-36.886c-4.217,0-7.634,3.418-7.634,7.634v35.62h-20.212c-2.533,0-4.903,1.257-6.323,3.357l-20.322,30.041h-31.147
	c-2.533,0-4.903,1.257-6.323,3.356l-20.323,30.041h-15.594c-2.533,0-4.903,1.257-6.323,3.357l-20.321,30.041H7.633
	c-2.402,0-4.664,1.131-6.106,3.051c-1.441,1.922-1.894,4.409-1.223,6.715l19.53,67.118c4.941,16.975,15.8,31.665,30.579,41.362
	c11.942,7.838,20.634,19.732,24.474,33.49l8.831,31.642c0.92,3.3,3.926,5.582,7.353,5.582h383.077c3.711,0,6.885-2.669,7.521-6.325
	l30.22-173.693C512.273,239.966,511.659,237.688,510.208,235.964z M377.463,105.064v6.673h-21.619v-6.673H377.463z M355.843,127.003
	h21.619v6.046h-21.619V127.003z M307.654,105.064v6.673h-21.619v-6.673H307.654z M286.034,127.003h21.619v6.046h-21.619V127.003z
	 M254.606,148.318H278.4h36.886h32.923h36.886h33.415l5.332,18.131H242.341L254.606,148.318z M154.575,215.113h60.205
	c4.216,0,7.634-3.418,7.634-7.634l0,0c0-4.216-3.418-7.634-7.634-7.634H184.55l12.265-18.131h253.962l5.332,18.131H250.406
	c-4.216,0-7.634,3.418-7.634,7.634l0,0c0,4.216,3.418,7.634,7.634,7.634h210.193l5.332,18.131H142.31L154.575,215.113z
	 M479.811,337.473h-56.373c-4.216,0-7.634,3.418-7.634,7.634l0,0c0,4.216,3.418,7.634,7.634,7.634h53.716l-9.429,54.195H96.864
	l-7.273-26.061c-2.912-10.435-8.054-20.008-14.961-28.135h313.183c4.216,0,7.634-3.418,7.634-7.634l0,0
	c0-4.216-3.418-7.634-7.634-7.634H56.971c-10.812-7.69-18.76-18.833-22.479-31.612l-16.688-57.351h477.485L479.811,337.473z"/>
<path d="M68.081,285.455c2.873,1.942,6.886,1.612,9.416-0.748c2.189-2.043,3.012-5.248,2.034-8.085
	c-1.051-3.049-3.985-5.146-7.214-5.152c-3.229-0.006-6.169,2.115-7.217,5.156C63.975,279.89,65.249,283.52,68.081,285.455z"/>
<path d="M96.233,286.738h33.587c4.217,0,7.634-3.418,7.634-7.634c0-4.216-3.417-7.634-7.634-7.634H96.233
	c-4.217,0-7.634,3.418-7.634,7.634C88.599,283.32,92.016,286.738,96.233,286.738z"/>
<g>
</g>
<g>
</g>
<g>
</g>
<g>
</g>
<g>
</g>
<g>
</g>
<g>
</g>
<g>
</g>
<g>
</g>
<g>
</g>
<g>
</g>
<g>
</g>
<g>
</g>
<g>
</g>
<g>
</g>
</svg>
