<?xml version="1.0" encoding="iso-8859-1"?>
<!-- Generator: Adobe Illustrator 19.0.0, SVG Export Plug-In . SVG Version: 6.00 Build 0)  -->
<svg version="1.1" id="Capa_1" xmlns="http://www.w3.org/2000/svg" xmlns:xlink="http://www.w3.org/1999/xlink" x="0px" y="0px"
	 viewBox="0 0 512 512" style="enable-background:new 0 0 512 512;" xml:space="preserve">
<path style="fill:#90C91C;" d="M504.396,176.185v268.197H7.604V176.185c0-28.378,23.005-51.393,51.393-51.393h394.007
	C481.381,124.793,504.396,147.807,504.396,176.185z"/>
<path style="fill:#B6E545;" d="M504.396,176.185v152.426H7.604V176.185c0-28.378,23.005-51.393,51.393-51.393h394.007
	C481.381,124.793,504.396,147.807,504.396,176.185z"/>
<g>
	<rect x="7.604" y="406.133" style="fill:#9AA7B8;" width="121.44" height="38.253"/>
	<rect x="382.946" y="406.133" style="fill:#9AA7B8;" width="121.44" height="38.253"/>
</g>
<g>
	<circle style="fill:#2C4046;" cx="412.915" cy="444.386" r="59.498"/>
	<circle style="fill:#2C4046;" cx="113.735" cy="444.386" r="59.498"/>
</g>
<g>
	<circle style="fill:#9AA7B8;" cx="412.915" cy="444.386" r="26.667"/>
	<circle style="fill:#9AA7B8;" cx="113.735" cy="444.386" r="26.667"/>
</g>
<polyline style="fill:#A0D9F2;" points="504.396,178.06 7.604,178.06 7.604,307.409 504.396,307.409 "/>
<polyline style="fill:#C0EAF9;" points="504.396,178.06 7.604,178.06 7.604,213.037 504.396,213.037 "/>
<rect x="7.604" y="178.055" style="fill:#F0C800;" width="93.285" height="34.976"/>
<path style="fill:#2C4046;" d="M276.921,94.42H130.73c-12.542,0-22.709,10.167-22.709,22.709v7.662h191.611v-7.662
	C299.632,104.588,289.464,94.42,276.921,94.42z"/>
<path d="M412.911,410.115c-18.897,0-34.271,15.373-34.271,34.271s15.373,34.271,34.271,34.271s34.271-15.373,34.271-34.271
	S431.808,410.115,412.911,410.115z M412.911,463.448c-10.511,0-19.063-8.551-19.063-19.063s8.552-19.063,19.063-19.063
	c10.511,0,19.063,8.551,19.063,19.063S423.422,463.448,412.911,463.448z"/>
<path d="M113.731,478.656c18.897,0,34.271-15.373,34.271-34.271s-15.373-34.271-34.271-34.271S79.46,425.488,79.46,444.385
	S94.834,478.656,113.731,478.656z M113.731,425.322c10.511,0,19.063,8.551,19.063,19.063s-8.552,19.063-19.063,19.063
	s-19.063-8.551-19.063-19.063S103.22,425.322,113.731,425.322z"/>
<path d="M333.591,406.129c0-4.199-3.404-7.604-7.604-7.604H195.583c-4.2,0-7.604,3.405-7.604,7.604s3.404,7.604,7.604,7.604h130.404
	C330.187,413.733,333.591,410.328,333.591,406.129z"/>
<path d="M453.003,117.189h-41.372c-4.199,0-7.604,3.405-7.604,7.604l0,0c0,4.199,3.405,7.604,7.604,7.604h41.372
	c22.203,0,40.586,16.613,43.402,38.059H100.887H15.595c2.817-21.446,21.2-38.059,43.401-38.059h49.024h191.61h76.515
	c4.199,0,7.604-3.405,7.604-7.604l0,0c0-4.199-3.405-7.604-7.604-7.604h-68.911v-0.058c0-16.742-13.572-30.313-30.313-30.313h-4.529
	L471.01,15.273c3.95-1.423,6-5.78,4.578-9.731c-1.422-3.951-5.779-6-9.732-4.577L227.517,86.817h-96.785
	c-16.742,0-30.313,13.572-30.313,30.313v0.058H58.996C26.413,117.189,0,143.602,0,176.184v1.876v34.976v231.345
	c0,4.199,3.405,7.604,7.604,7.604h39.468c3.789,33.433,32.231,59.501,66.659,59.501s62.871-26.068,66.659-59.501h88.284
	c4.199,0,7.604-3.405,7.604-7.604l0,0c0-4.199-3.405-7.604-7.604-7.604h-88.285c-3.791-33.43-32.232-59.495-66.658-59.495
	c-19.277,0-36.668,8.182-48.919,21.242H15.208v-83.512h481.584v83.512h-34.961c-12.25-13.06-29.643-21.242-48.92-21.242
	c-34.427,0-62.868,26.065-66.658,59.495h-42.091c-4.199,0-7.604,3.405-7.604,7.604l0,0c0,4.199,3.405,7.604,7.604,7.604h42.09
	c3.789,33.433,32.231,59.501,66.659,59.501c34.43,0,62.872-26.068,66.66-59.501h24.824c4.199,0,7.604-3.405,7.604-7.604V176.184
	C512,143.603,485.586,117.189,453.003,117.189z M115.625,117.131c0-8.329,6.777-15.106,15.106-15.106h146.191
	c8.329,0,15.105,6.777,15.105,15.106v0.058H115.624L115.625,117.131L115.625,117.131z M108.491,213.037v-27.372h88.2v114.142h-88.2
	C108.491,299.806,108.491,213.037,108.491,213.037z M211.899,185.664H300.1v114.142h-88.201L211.899,185.664L211.899,185.664z
	 M315.308,185.664h88.201v114.142h-88.201V185.664z M93.283,205.433H15.208v-19.768h78.075V205.433z M113.731,392.491
	c28.615,0,51.895,23.279,51.895,51.895s-23.279,51.895-51.895,51.895S61.836,473,61.836,444.385S85.116,392.491,113.731,392.491z
	 M54.069,413.733c-3.639,7.052-6.065,14.823-6.998,23.045H15.208v-23.045H54.069z M15.208,220.641h78.075v79.164H15.208V220.641z
	 M418.717,299.805V185.664h78.075v114.142H418.717z M412.911,496.28c-28.615,0-51.895-23.279-51.895-51.895
	s23.279-51.895,51.895-51.895c28.615,0,51.896,23.279,51.896,51.895S441.526,496.28,412.911,496.28z M479.571,436.778
	c-0.933-8.222-3.359-15.993-6.998-23.045h24.219v23.045H479.571z"/>
<path d="M27.449,351.422v18.209c0,4.199,3.404,7.604,7.604,7.604s7.604-3.405,7.604-7.604v-18.209c0-4.199-3.404-7.604-7.604-7.604
	S27.449,347.223,27.449,351.422z"/>
<path d="M485.948,373.939v-28.894c0-4.199-3.404-7.604-7.604-7.604c-4.2,0-7.604,3.405-7.604,7.604v28.894
	c0,4.199,3.404,7.604,7.604,7.604C482.544,381.543,485.948,378.138,485.948,373.939z"/>
<g>
</g>
<g>
</g>
<g>
</g>
<g>
</g>
<g>
</g>
<g>
</g>
<g>
</g>
<g>
</g>
<g>
</g>
<g>
</g>
<g>
</g>
<g>
</g>
<g>
</g>
<g>
</g>
<g>
</g>
</svg>
