<?xml version="1.0" encoding="iso-8859-1"?>
<!-- Generator: Adobe Illustrator 19.0.0, SVG Export Plug-In . SVG Version: 6.00 Build 0)  -->
<svg version="1.1" id="Capa_1" xmlns="http://www.w3.org/2000/svg" xmlns:xlink="http://www.w3.org/1999/xlink" x="0px" y="0px"
	 viewBox="0 0 512.001 512.001" style="enable-background:new 0 0 512.001 512.001;" xml:space="preserve">
<rect x="193.776" y="455.655" style="fill:#AAB1BC;" width="124.449" height="35.605"/>
<rect x="193.776" y="455.655" style="fill:#959BA5;" width="35.605" height="35.605"/>
<rect x="167.581" y="478.116" style="fill:#AAB1BC;" width="176.839" height="26.294"/>
<rect x="167.581" y="478.116" style="fill:#959BA5;" width="37.76" height="26.294"/>
<circle style="fill:#EFEFEF;" cx="256.001" cy="126.047" r="118.459"/>
<path style="fill:#008EE1;" d="M143.189,162.054h225.704c-15.245,47.794-60.072,82.403-112.893,82.403
	C203.179,244.458,158.434,209.848,143.189,162.054z"/>
<path style="fill:#E21730;" d="M368.893,90.033H143.189C158.434,42.239,203.179,7.63,256,7.63
	C308.821,7.63,353.648,42.24,368.893,90.033z"/>
<rect x="240.015" y="243.303" style="fill:#CCD4D7;" width="31.972" height="212.352"/>
<g>
	<rect x="240.015" y="243.303" style="fill:#B7C1C4;" width="13.892" height="212.352"/>
	<path style="fill:#B7C1C4;" d="M271.984,243.301v29.423c-5.231,0.708-10.563,1.072-15.986,1.072
		c-5.423,0-10.755-0.364-15.986-1.072v-29.423L271.984,243.301L271.984,243.301z"/>
</g>
<path d="M344.421,470.528h-18.609v-14.87c0-4.191-3.398-7.588-7.588-7.588h-38.65V249.867
	c59.289-11.264,104.01-64.184,102.428-127.054C380.34,56.717,327.135,2.703,261.07,0.1c-71.799-2.83-131.112,54.761-131.112,125.944
	c0,61.444,44.198,112.752,102.468,123.824v95.782c0,4.191,3.398,7.588,7.588,7.588l0,0c4.191,0,7.588-3.398,7.588-7.588v-93.848
	c2.777,0.183,5.576,0.286,8.399,0.286c2.823,0,5.62-0.103,8.398-0.286v196.269h-16.797v-67.008c0-4.191-3.398-7.588-7.588-7.588l0,0
	c-4.191,0-7.588,3.398-7.588,7.588v67.008h-38.649c-4.191,0-7.588,3.398-7.588,7.588v14.87h-18.61c-4.191,0-7.588,3.398-7.588,7.588
	v26.294c0,4.191,3.398,7.588,7.588,7.588h176.843c4.191,0,7.588-3.398,7.588-7.588v-26.296
	C352.01,473.926,348.612,470.528,344.421,470.528z M256,15.177c45.662,0,84.959,27.75,101.928,67.268h-54.841
	c-4.191,0-7.588,3.398-7.588,7.588l0,0c0,4.191,3.398,7.588,7.588,7.588h60.081c2.409,9.075,3.699,18.6,3.699,28.422
	s-1.29,19.347-3.699,28.422H148.832c-2.409-9.075-3.699-18.6-3.699-28.422c0-9.822,1.29-19.347,3.699-28.422h118.84
	c4.191,0,7.588-3.398,7.588-7.588l0,0c0-4.191-3.398-7.588-7.588-7.588h-113.6C171.041,42.927,210.338,15.177,256,15.177z
	 M154.072,169.642h203.855C340.959,209.161,301.661,236.91,256,236.91S171.041,209.161,154.072,169.642z M201.364,463.247h38.649
	h31.973h38.65v7.282H201.364L201.364,463.247L201.364,463.247z M336.833,496.823H175.167v-11.118h18.61h124.449h18.609v11.118
	H336.833z"/>
<g>
</g>
<g>
</g>
<g>
</g>
<g>
</g>
<g>
</g>
<g>
</g>
<g>
</g>
<g>
</g>
<g>
</g>
<g>
</g>
<g>
</g>
<g>
</g>
<g>
</g>
<g>
</g>
<g>
</g>
</svg>
