<?xml version="1.0" encoding="iso-8859-1"?>
<!-- Generator: Adobe Illustrator 19.0.0, SVG Export Plug-In . SVG Version: 6.00 Build 0)  -->
<svg version="1.1" id="Capa_1" xmlns="http://www.w3.org/2000/svg" xmlns:xlink="http://www.w3.org/1999/xlink" x="0px" y="0px"
	 viewBox="0 0 512 512" style="enable-background:new 0 0 512 512;" xml:space="preserve">
<g>
	<polygon style="fill:#E3E4E8;" points="451.019,158.811 451.019,227.004 61.717,227.004 61.717,158.811 256.368,22.811 	"/>
	<rect x="73.556" y="274.534" style="fill:#E3E4E8;" width="61.47" height="169.933"/>
</g>
<rect x="73.556" y="274.534" style="fill:#C6CAD5;" width="24.652" height="169.933"/>
<rect x="58.671" y="234.638" style="fill:#E3E4E8;" width="91.242" height="55.697"/>
<rect x="58.671" y="249.816" style="fill:#C6CAD5;" width="27.212" height="40.52"/>
<rect x="58.671" y="428.661" style="fill:#E3E4E8;" width="91.242" height="53.816"/>
<rect x="58.671" y="428.661" style="fill:#C6CAD5;" width="27.212" height="40.52"/>
<rect x="377.704" y="274.534" style="fill:#E3E4E8;" width="61.47" height="169.933"/>
<rect x="377.704" y="274.534" style="fill:#C6CAD5;" width="24.652" height="169.933"/>
<rect x="362.81" y="234.638" style="fill:#E3E4E8;" width="91.242" height="55.697"/>
<rect x="362.81" y="249.816" style="fill:#C6CAD5;" width="27.212" height="40.52"/>
<rect x="362.81" y="428.661" style="fill:#E3E4E8;" width="91.242" height="53.816"/>
<rect x="362.81" y="428.661" style="fill:#C6CAD5;" width="27.212" height="40.52"/>
<rect x="225.635" y="274.534" style="fill:#E3E4E8;" width="61.47" height="169.933"/>
<rect x="225.635" y="274.534" style="fill:#C6CAD5;" width="24.652" height="169.933"/>
<rect x="210.751" y="234.638" style="fill:#E3E4E8;" width="91.242" height="55.697"/>
<rect x="210.751" y="249.816" style="fill:#C6CAD5;" width="27.212" height="40.52"/>
<rect x="210.751" y="428.661" style="fill:#E3E4E8;" width="91.242" height="53.816"/>
<g>
	<rect x="210.751" y="428.661" style="fill:#C6CAD5;" width="27.212" height="40.52"/>
	<polygon style="fill:#C6CAD5;" points="451.019,161.285 451.019,208.135 256.368,87.911 61.717,208.135 61.717,161.285 
		256.368,41.061 	"/>
</g>
<polygon style="fill:#E3E4E8;" points="503.721,207.236 256.364,54.457 9.008,207.236 9.008,160.383 256.364,7.604 503.721,160.383 
	"/>
<rect x="7.604" y="469.185" style="fill:#C6CAD5;" width="496.792" height="35.211"/>
<rect x="42.704" y="211.796" style="fill:#C0C4D1;" width="427.322" height="38.018"/>
<path d="M104.293,310.644c-4.2,0-7.604,3.405-7.604,7.604v85.16c0,4.199,3.404,7.604,7.604,7.604s7.604-3.405,7.604-7.604v-85.16
	C111.897,314.048,108.493,310.644,104.293,310.644z"/>
<path d="M408.436,411.012c4.2,0,7.604-3.405,7.604-7.604v-85.16c0-4.199-3.404-7.604-7.604-7.604s-7.604,3.405-7.604,7.604v85.16
	C400.832,407.607,404.236,411.012,408.436,411.012z"/>
<path d="M256.368,310.644c-4.2,0-7.604,3.405-7.604,7.604v85.16c0,4.199,3.404,7.604,7.604,7.604c4.2,0,7.604-3.405,7.604-7.604
	v-85.16C263.972,314.048,260.568,310.644,256.368,310.644z"/>
<path d="M504.396,461.581h-42.734v-32.915c0-4.199-3.404-7.604-7.604-7.604h-7.283V297.939h7.283c4.2,0,7.604-3.405,7.604-7.604
	V257.42h8.363c4.2,0,7.604-3.405,7.604-7.604v-38.018c0-4.199-3.404-7.604-7.604-7.604h-11.402v-15.876l41.102,25.387
	c1.223,0.755,2.609,1.135,3.996,1.135c1.275,0,2.552-0.32,3.704-0.963c2.408-1.343,3.9-3.884,3.9-6.641v-46.853
	c0-2.636-1.366-5.085-3.608-6.469L260.361,1.135c-2.449-1.513-5.543-1.513-7.992,0L5.012,153.915
	c-2.243,1.385-3.608,3.833-3.608,6.469v46.852c0,2.757,1.492,5.298,3.9,6.641c2.409,1.342,5.352,1.278,7.7-0.171l41.105-25.388
	v15.877H42.704c-4.2,0-7.604,3.405-7.604,7.604v38.018c0,4.199,3.404,7.604,7.604,7.604h8.363v32.915
	c0,4.199,3.404,7.604,7.604,7.604h7.283v123.122h-7.283c-4.2,0-7.604,3.405-7.604,7.604v32.915H7.604
	c-4.2,0-7.604,3.405-7.604,7.604v35.211C0,508.595,3.404,512,7.604,512h496.792c4.2,0,7.604-3.405,7.604-7.604v-35.211
	C512,464.985,508.596,461.581,504.396,461.581z M309.593,461.581v-32.915c0-4.199-3.404-7.604-7.604-7.604h-7.283V297.939h7.283
	c4.2,0,7.604-3.405,7.604-7.604V257.42h45.618v32.915c0,4.199,3.404,7.604,7.604,7.604h7.283v123.122h-7.283
	c-4.2,0-7.604,3.405-7.604,7.604v32.915h-45.618V461.581z M294.385,282.731h-7.283h-61.47h-7.283V257.42h76.035v25.311H294.385z
	 M233.237,297.939h46.262v123.122h-46.262V297.939z M218.35,436.269h7.283h61.47h7.283v25.311h-76.035v-25.311H218.35z
	 M370.418,436.269h7.283h61.47h7.283v25.311h-76.035v-25.311H370.418z M431.567,421.061h-46.263V297.939h46.263V421.061z
	 M446.454,282.731h-7.283h-61.47h-7.283V257.42h76.035v25.311H446.454z M16.612,164.625L256.364,16.542l239.753,148.083v28.977
	L260.361,47.988c-1.225-0.756-2.611-1.135-3.996-1.135c-1.385,0-2.771,0.378-3.996,1.135L16.612,193.601V164.625z M50.308,219.402
	H362.01c4.199,0,7.604-3.405,7.604-7.604l0,0c0-4.199-3.405-7.604-7.604-7.604H69.317v-25.27l187.047-115.53l187.05,115.532v25.268
	h-45.918c-4.199,0-7.604,3.405-7.604,7.604l0,0c0,4.199,3.405,7.604,7.604,7.604h64.924v22.81h-8.363h-91.242h-60.826h-91.242
	h-60.833H58.671h-8.363V219.402z M142.31,257.42v25.311h-7.283h-61.47h-7.283V257.42H142.31z M81.162,297.939h46.263v28.391
	c0,4.199,3.405,7.604,7.604,7.604l0,0c4.199,0,7.604-3.405,7.604-7.604v-28.391h7.283c4.199,0,7.604-3.405,7.604-7.604V257.42
	h45.625v32.915c0,4.199,3.405,7.604,7.604,7.604h7.283v123.122h-7.283c-4.199,0-7.604,3.405-7.604,7.604v32.915h-45.625v-32.915
	c0-4.199-3.405-7.604-7.604-7.604h-7.283v-59.244c0-4.199-3.405-7.604-7.604-7.604l0,0c-4.199,0-7.604,3.405-7.604,7.604v59.244
	H81.162L81.162,297.939L81.162,297.939z M66.275,436.269h7.283h61.47h7.283v25.311H66.275V436.269z M496.792,496.793H15.208v-20.003
	h43.463h91.242h60.833h91.242h60.826h91.242h42.735V496.793z"/>
<path d="M256.364,97.604c-24.318,0-44.103,19.784-44.103,44.103s19.784,44.103,44.103,44.103s44.103-19.784,44.103-44.103
	S280.683,97.604,256.364,97.604z M256.364,170.602c-15.933,0-28.895-12.962-28.895-28.895s12.962-28.895,28.895-28.895
	c15.933,0,28.895,12.962,28.895,28.895S272.297,170.602,256.364,170.602z"/>
<g>
</g>
<g>
</g>
<g>
</g>
<g>
</g>
<g>
</g>
<g>
</g>
<g>
</g>
<g>
</g>
<g>
</g>
<g>
</g>
<g>
</g>
<g>
</g>
<g>
</g>
<g>
</g>
<g>
</g>
</svg>
