<?xml version="1.0" encoding="iso-8859-1"?>
<!-- Generator: Adobe Illustrator 19.0.0, SVG Export Plug-In . SVG Version: 6.00 Build 0)  -->
<svg version="1.1" id="Capa_1" xmlns="http://www.w3.org/2000/svg" xmlns:xlink="http://www.w3.org/1999/xlink" x="0px" y="0px"
	 viewBox="0 0 511.999 511.999" style="enable-background:new 0 0 511.999 511.999;" xml:space="preserve">
<polyline style="fill:#A0D9F2;" points="147.211,210.378 180.667,152.591 355.549,210.378 "/>
<path style="fill:#E30E08;" d="M504.398,359.403H321.772c-60.893,0-120.173-13.677-173.857-39.145
	C94.221,294.789,46.133,257.54,7.606,210.375h414.041c31.207,0,58.125,21.169,65.84,50.896c0.487,1.886,0.892,3.812,1.227,5.759
	L504.398,359.403z"/>
<path style="fill:#E3E8EC;" d="M487.487,261.271l-0.395,0.811c0,0-84.019,0-231.536,0c-147.507,0-247.95-51.707-247.95-51.707
	h414.041C452.854,210.376,479.772,231.546,487.487,261.271z"/>
<path d="M511.892,358.137l-15.676-92.381c-6.193-36.494-37.554-62.981-74.571-62.981h-64.873l-173.719-57.403
	c-3.418-1.13-7.163,0.293-8.967,3.41l-31.26,53.993H7.603c-2.936,0-5.611,1.691-6.87,4.345c-1.258,2.653-0.876,5.795,0.981,8.069
	c38.511,47.145,87.937,85.854,142.937,111.943c54.999,26.09,116.246,39.88,177.121,39.88h182.623c2.24,0,4.365-0.987,5.808-2.698
	C511.65,362.605,512.267,360.344,511.892,358.137z M477.144,254.478h-77.677c-4.199,0-7.604,3.405-7.604,7.604l0,0
	c0,4.199,3.405,7.604,7.604,7.604h81.991l5.419,31.935H301.519l-28.843-31.935h91.305c4.199,0,7.604-3.405,7.604-7.604l0,0
	c0-4.199-3.405-7.604-7.604-7.604H255.56c-93.842,0-168.912-21.454-210.014-36.497h376.099
	C446.299,217.982,467.801,232.695,477.144,254.478z M241.147,202.774l10.783-18.627l56.372,18.627H241.147z M184.151,161.751
	l53.028,17.523l-13.605,23.501h-63.175L184.151,161.751z M321.773,351.804c-58.634,0-117.628-13.283-170.603-38.412
	c-42.836-20.32-82.157-48.593-115.253-82.676c10.404,3.928,23.207,8.359,38.186,12.805c39.625,11.761,102.469,25.737,178.062,26.147
	l40.333,44.655c1.442,1.596,3.492,2.507,5.642,2.507h191.317l5.935,34.976h-173.62V351.804z"/>
<g>
</g>
<g>
</g>
<g>
</g>
<g>
</g>
<g>
</g>
<g>
</g>
<g>
</g>
<g>
</g>
<g>
</g>
<g>
</g>
<g>
</g>
<g>
</g>
<g>
</g>
<g>
</g>
<g>
</g>
</svg>
