<?xml version="1.0" encoding="iso-8859-1"?>
<!-- Generator: Adobe Illustrator 19.0.0, SVG Export Plug-In . SVG Version: 6.00 Build 0)  -->
<svg version="1.1" id="Capa_1" xmlns="http://www.w3.org/2000/svg" xmlns:xlink="http://www.w3.org/1999/xlink" x="0px" y="0px"
	 viewBox="0 0 512 512" style="enable-background:new 0 0 512 512;" xml:space="preserve">
<path style="fill:#959BA5;" d="M127.973,252.964h-0.134c-10.399,0-18.56-8.918-17.639-19.277l6.301-70.884
	c1.202-13.528,12.536-23.899,26.118-23.899h3.462h219.846h3.452c13.582,0,24.916,10.371,26.118,23.899l6.301,70.884
	c0.921,10.359-7.24,19.277-17.639,19.277h-0.124"/>
<rect x="164.752" y="366.979" style="fill:#BCC4D2;" width="182.485" height="68.466"/>
<g>
	<rect x="164.752" y="366.979" style="fill:#959BA5;" width="182.485" height="43.376"/>
	<path style="fill:#959BA5;" d="M351.347,385.262H160.66c-28.185,0-49.689-25.184-45.269-53.025l39.52-248.964
		c2.89-18.219,16.262-32.494,33.366-37.087c3.812-1.024,7.797-1.561,11.893-1.561h111.657c22.538,0,41.731,16.384,45.269,38.648
		l39.52,248.964c0.243,1.551,0.406,3.092,0.487,4.613C398.623,362.805,377.95,385.262,351.347,385.262z"/>
</g>
<path style="fill:#FFD400;" d="M70.033,401.994L70.033,401.994c11.338,0,20.53-9.192,20.53-20.53v-40.299l-41.059,15.209v25.09
	C49.504,392.802,58.695,401.994,70.033,401.994z"/>
<rect x="7.604" y="435.445" style="fill:#93C819;" width="496.792" height="31.935"/>
<path style="fill:#BCC4D2;" d="M384.157,253.755L357.095,83.274c-3.538-22.264-22.731-38.648-45.269-38.648H200.17
	c-4.096,0-8.08,0.537-11.893,1.561l-37.918,238.916c-4.41,27.831,17.094,53.015,45.269,53.015h150.4
	c21.059,0,38.129-17.071,38.129-38.129V253.755z"/>
<g>
	<polygon style="fill:#959BA5;" points="224.822,128.257 224.822,165.263 159.752,168.304 184.46,128.257 	"/>
	<polygon style="fill:#959BA5;" points="327.536,128.257 352.244,168.304 287.174,165.263 287.174,128.257 	"/>
	<rect x="224.824" y="200.747" style="fill:#959BA5;" width="62.352" height="33.964"/>
</g>
<path style="fill:#E21730;" d="M446.41,371.576L446.41,371.576c-11.338,0-20.53-9.192-20.53-20.53v-40.299l41.059,15.209v25.09
	C466.94,362.385,457.749,371.576,446.41,371.576z"/>
<path d="M504.396,427.842h-50.381v-25.204l18.473-7.151c3.606-1.396,5.817-5.23,4.885-8.983c-1.126-4.538-5.911-6.926-10.135-5.292
	l-13.223,5.118v-8.204c11.829-3.326,20.53-14.203,20.53-27.081v-25.09c0-3.18-1.98-6.025-4.963-7.13l-41.059-15.209
	c-3.072-1.138-6.612-0.204-8.716,2.551c-1.043,1.366-1.529,3.079-1.529,4.798v40.081c0,12.878,8.701,23.755,20.53,27.081v49.715
	h-83.961v-35.103c14.35-0.938,27.733-7.596,37.141-18.613c10.168-11.91,14.592-27.61,12.137-43.077l-11.426-71.98
	c3.837-1.378,7.333-3.666,10.134-6.727c4.782-5.226,7.165-12.272,6.538-19.329l-6.301-70.884
	c-1.47-16.548-14.397-29.261-30.632-30.692l-7.835-49.359c-4.12-25.954-26.499-45.061-52.779-45.061H200.175
	c-26.279,0-48.658,19.107-52.779,45.062l-7.835,49.358c-16.235,1.43-29.164,14.142-30.636,30.692l-6.3,70.884
	c-0.627,7.056,1.756,14.102,6.538,19.329c2.801,3.061,6.299,5.35,10.138,6.728l-11.425,71.979
	c-2.456,15.466,1.968,31.167,12.137,43.077c9.407,11.018,22.791,17.676,37.14,18.613v35.103H77.637v-19.297
	c11.829-3.326,20.53-14.203,20.53-27.081v-40.094c0-1.717-0.488-3.428-1.532-4.792c-2.107-2.749-5.645-3.681-8.713-2.545
	l-41.059,15.209c-2.983,1.105-4.963,3.95-4.963,7.13v25.09c0,12.878,8.701,23.755,20.53,27.081v19.297H7.604
	c-4.199,0-7.604,3.405-7.604,7.604v31.936c0,4.199,3.405,7.604,7.604,7.604h92.843c4.199,0,7.604-3.405,7.604-7.604l0,0
	c0-4.199-3.405-7.604-7.604-7.604H15.208v-16.728h149.549h182.486h149.55v16.728H135.933c-4.199,0-7.604,3.405-7.604,7.604l0,0
	c0,4.199,3.405,7.604,7.604,7.604h368.463c4.199,0,7.604-3.405,7.604-7.604v-31.936C512,431.247,508.595,427.842,504.396,427.842z
	 M433.486,351.047v-29.374l25.851,9.576v19.798c0,7.127-5.798,12.926-12.926,12.926S433.486,358.174,433.486,351.047z
	 M57.108,381.464v-19.798l25.851-9.576v29.374c0,7.127-5.798,12.926-12.926,12.926C62.906,394.39,57.108,388.592,57.108,381.464z
	 M387.921,163.476l6.301,70.884c0.254,2.859-0.672,5.599-2.61,7.715c-0.434,0.474-0.909,0.894-1.41,1.27l-15.236-95.985
	C381.998,149.544,387.234,155.744,387.921,163.476z M120.384,242.077c-1.937-2.117-2.864-4.857-2.61-7.715l6.3-70.884
	c0.687-7.734,5.926-13.935,12.959-16.116l-15.236,95.989C121.295,242.973,120.82,242.552,120.384,242.077z M172.36,427.842v-34.976
	h113.614c4.199,0,7.604-3.405,7.604-7.604l0,0c0-4.199-3.405-7.604-7.604-7.604h-124.65c-9.377,0-18.58-3.147-25.663-9.293
	c-10.133-8.792-14.823-21.977-12.767-34.933l39.519-248.97c2.966-18.68,18.845-32.238,37.758-32.238h111.65
	c18.914,0,34.793,13.558,37.758,32.238l39.52,248.97c2.056,12.954-2.634,26.139-12.767,34.932
	c-7.083,6.146-16.286,9.293-25.664,9.293h-29.213c-4.199,0-7.604,3.405-7.604,7.604l0,0c0,4.199,3.405,7.604,7.604,7.604h18.178
	v34.976H172.36V427.842z"/>
<path d="M315.975,276.713c1.361-3.973-0.757-8.296-4.731-9.657c-35.626-12.197-74.864-12.197-110.49,0
	c-3.973,1.361-6.091,5.684-4.731,9.657c1.081,3.157,4.033,5.143,7.193,5.143c0.817,0,1.649-0.133,2.465-0.412
	c32.447-11.11,68.187-11.11,100.636,0C310.293,282.803,314.614,280.686,315.975,276.713z"/>
<path d="M276.281,291.991h-40.563c-4.2,0-7.604,3.405-7.604,7.604s3.404,7.604,7.604,7.604h40.563c4.2,0,7.604-3.405,7.604-7.604
	S280.481,291.991,276.281,291.991z"/>
<path d="M217.221,234.712c0,4.199,3.404,7.604,7.604,7.604h62.349c4.2,0,7.604-3.405,7.604-7.604v-61.48l57.11,2.669
	c2.845,0.134,5.476-1.307,6.907-3.736c1.432-2.429,1.401-5.452-0.08-7.852l-24.703-40.044c-1.384-2.245-3.833-3.611-6.471-3.611
	h-40.366c-4.2,0-7.604,3.405-7.604,7.604v36.958c0,0.033,0,0.068,0,0.101v27.823H232.43V165.32c0-0.033,0-0.067,0-0.1v-36.959
	c0-4.199-3.404-7.604-7.604-7.604h-40.365c-2.638,0-5.088,1.367-6.471,3.611l-24.704,40.044c-1.481,2.4-1.512,5.422-0.08,7.852
	c1.431,2.429,4.046,3.869,6.907,3.736l57.11-2.669v61.481H217.221z M294.778,135.866h28.519l14.912,24.172l-43.431-2.03V135.866z
	 M279.57,208.353v18.755h-47.142v-18.755L279.57,208.353L279.57,208.353z M173.791,160.038l14.912-24.172h28.518v22.142
	L173.791,160.038z"/>
<path d="M310.649,82.884c2.866,1.932,6.854,1.607,9.379-0.745c2.26-2.105,3.035-5.432,1.93-8.318
	c-2.427-6.337-11.754-6.343-14.183,0C306.508,77.136,307.739,80.892,310.649,82.884z"/>
<path d="M293.92,99.603c2.645,1.85,6.368,1.643,8.884-0.316c2.515-1.96,3.539-5.361,2.549-8.388
	c-2.144-6.547-11.601-6.868-14.232-0.522C289.752,93.681,290.926,97.627,293.92,99.603z"/>
<path d="M319.43,96.328c0,3.258,2.144,6.183,5.219,7.213c3.049,1.021,6.508-0.071,8.445-2.628
	c4.248-5.606-1.097-13.648-7.906-11.957C321.847,89.785,319.43,92.886,319.43,96.328z"/>
<path d="M170.433,345.87c-3.181,0.664-5.645,3.286-6.054,6.517c-0.41,3.233,1.363,6.417,4.295,7.809
	c2.872,1.364,6.375,0.758,8.623-1.49c2.271-2.271,2.859-5.834,1.454-8.715C177.263,346.938,173.769,345.197,170.433,345.87z"/>
<path d="M153.086,312.402c-2.616-6.514-12.283-5.926-14.289,0.699c-2.027,6.694,5.663,12.387,11.49,8.528
	C153.266,319.655,154.475,315.701,153.086,312.402z"/>
<path d="M150.287,334.839c-5.666-3.83-13.213,1.609-11.59,8.17c0.746,3.016,3.355,5.311,6.431,5.701
	c3.211,0.408,6.438-1.372,7.812-4.296C154.518,341.055,153.401,336.889,150.287,334.839z"/>
<path d="M166.174,333.795c5.754,3.788,13.41-1.675,11.551-8.349c-0.904-3.246-3.943-5.578-7.324-5.571
	c-3.281,0.006-6.231,2.167-7.235,5.281C162.143,328.329,163.382,331.951,166.174,333.795z"/>
<g>
</g>
<g>
</g>
<g>
</g>
<g>
</g>
<g>
</g>
<g>
</g>
<g>
</g>
<g>
</g>
<g>
</g>
<g>
</g>
<g>
</g>
<g>
</g>
<g>
</g>
<g>
</g>
<g>
</g>
</svg>
