<?xml version="1.0" encoding="iso-8859-1"?>
<!-- Generator: Adobe Illustrator 19.0.0, SVG Export Plug-In . SVG Version: 6.00 Build 0)  -->
<svg version="1.1" id="Capa_1" xmlns="http://www.w3.org/2000/svg" xmlns:xlink="http://www.w3.org/1999/xlink" x="0px" y="0px"
	 viewBox="0 0 511.999 511.999" style="enable-background:new 0 0 511.999 511.999;" xml:space="preserve">
<polyline style="fill:#F1C400;" points="272.772,158.105 272.772,82.914 319.744,82.914 319.744,50.579 272.772,50.579 
	272.772,7.596 240.354,7.596 240.354,50.579 193.382,50.579 193.382,82.914 240.354,82.914 240.354,158.105 "/>
<polygon style="fill:#FF85AE;" points="24.008,349.282 24.008,469.725 487.991,469.725 487.991,349.282 478.248,323.454 
	343.866,269.701 156.763,277.061 47.189,325.522 "/>
<polygon style="fill:#FFBCCC;" points="374.009,219.586 374.009,469.745 137.99,469.745 137.99,219.586 186.741,170.464 
	254.966,154.959 333.528,183.903 373.843,206.645 "/>
<polygon style="fill:#E09BAF;" points="374.597,219.584 374.597,240.01 256.607,190.479 138.577,240.031 138.577,219.584 
	166.406,191.543 251.22,155.936 256.607,153.678 289.074,167.309 350.13,192.94 374.425,206.642 "/>
<g>
	<polygon style="fill:#E56E9C;" points="138.577,285.926 138.577,322.728 24.587,370.548 24.587,349.281 47.778,325.523 
		113.877,296.286 	"/>
	<polygon style="fill:#E56E9C;" points="488.577,349.281 488.577,370.548 374.597,322.728 374.597,285.926 481.609,330.819 	"/>
</g>
<path style="fill:#FF84A9;" d="M258.584,354.466h-3.101c-23.122,0-41.865,18.744-41.865,41.865v73.393h86.832v-73.393
	C300.449,373.209,281.706,354.466,258.584,354.466z"/>
<g>
	<polygon style="fill:#FF317D;" points="120.603,226.902 256.02,170.048 391.436,226.902 391.436,190.105 256.02,133.25 
		120.603,190.105 	"/>
	<polyline style="fill:#FF317D;" points="137.99,301.457 7.908,356.037 7.908,319.236 137.99,264.657 	"/>
	<polyline style="fill:#FF317D;" points="374.009,264.657 504.091,319.236 504.091,356.037 374.009,301.457 	"/>
</g>
<g>
	<path style="fill:#423E3E;" d="M83.5,362.568h-1.819c-13.561,0-24.554,10.993-24.554,24.554v43.045h50.927v-43.045
		C108.054,373.561,97.061,362.568,83.5,362.568z"/>
	<path style="fill:#423E3E;" d="M430.318,362.568h-1.819c-13.561,0-24.554,10.993-24.554,24.554v43.045h50.927v-43.045
		C454.872,373.561,443.879,362.568,430.318,362.568z"/>
</g>
<path style="fill:#FF317D;" d="M256,319.379c0,0,21.562-19.509,36.28-34.226c14.718-14.718,20.536-36.28,1.369-49.285
	c-19.166-13.006-37.648,7.529-37.648,7.529s-18.482-20.536-37.648-7.529c-19.166,13.006-13.348,34.569,1.369,49.285
	C234.437,299.87,256,319.379,256,319.379z"/>
<rect x="7.887" y="469.236" style="fill:#423E3E;" width="496.224" height="35.171"/>
<path d="M83.5,354.972h-1.819c-17.727,0-32.149,14.422-32.149,32.149v43.044c0,4.195,3.401,7.595,7.595,7.595h50.927
	c4.195,0,7.595-3.401,7.595-7.595v-43.044C115.649,369.394,101.227,354.972,83.5,354.972z M100.459,422.57H64.722v-35.449
	c0-9.351,7.607-16.959,16.959-16.959H83.5c9.351,0,16.959,7.607,16.959,16.959V422.57z"/>
<path d="M403.945,437.761h50.927c4.196,0,7.595-3.401,7.595-7.595v-43.044c0-17.727-14.422-32.149-32.149-32.149h-1.819
	c-17.727,0-32.149,14.422-32.149,32.149v43.044C396.35,434.36,399.751,437.761,403.945,437.761z M411.54,387.122
	c0-9.351,7.608-16.959,16.959-16.959h1.819c9.35,0,16.959,7.607,16.959,16.959v35.449H411.54V387.122z"/>
<path d="M214.349,290.523c14.682,14.682,36.337,34.291,36.555,34.488c1.446,1.308,3.271,1.963,5.096,1.963
	c1.824,0,3.65-0.654,5.096-1.963c0.217-0.196,21.874-19.806,36.555-34.488c11.072-11.071,16.762-24.376,15.611-36.502
	c-0.931-9.807-6.237-18.258-15.348-24.44c-15.847-10.756-32.122-4.071-41.913,3.536c-9.792-7.608-26.066-14.29-41.914-3.536
	c-9.109,6.182-14.417,14.633-15.347,24.439C197.589,266.147,203.278,279.452,214.349,290.523z M213.861,255.455
	c0.495-5.223,3.441-9.699,8.755-13.304c3.127-2.123,6.277-2.94,9.275-2.94c9.831,0,18.034,8.798,18.463,9.266
	c1.44,1.601,3.493,2.515,5.646,2.515c2.153,0,4.206-0.913,5.646-2.515c0.036-0.04,3.815-4.143,9.389-6.93
	c6.764-3.382,12.767-3.186,18.35,0.604c5.314,3.606,8.259,8.081,8.755,13.304c0.711,7.49-3.487,16.584-11.23,24.326
	c-10.111,10.111-23.654,22.66-30.909,29.315c-7.253-6.653-20.793-19.199-30.909-29.315
	C217.349,272.04,213.151,262.946,213.861,255.455z"/>
<path d="M504.112,461.638h-8.525V360.705l5.566,2.335c0.945,0.396,1.943,0.591,2.937,0.591c2.065,0,4.11-0.842,5.612-2.472
	c1.334-1.447,1.984-3.399,1.984-5.366v-36.557c0-3.059-1.836-5.821-4.657-7.005l-125.426-52.626v-28.596l6.893,2.894
	c0.945,0.397,1.944,0.592,2.939,0.592c2.287,0,4.549-1.031,6.074-3.025c1.036-1.354,1.522-3.052,1.522-4.757v-36.61
	c0-3.059-1.835-5.819-4.655-7.003l-114.012-47.867v-44.73h39.374c4.195,0,7.595-3.401,7.595-7.595V50.584
	c0-4.195-3.401-7.595-7.595-7.595h-39.374V7.595c0-4.195-3.401-7.595-7.595-7.595h-32.417c-4.195,0-7.595,3.401-7.595,7.595v35.394
	h-39.374c-4.195,0-7.595,3.401-7.595,7.595V82.91c0,4.195,3.401,7.595,7.595,7.595h39.374v44.275l-44.855,18.832
	c-3.868,1.623-5.686,6.075-4.063,9.943l0,0c1.623,3.868,6.075,5.686,9.943,4.063l62.238-26.13l127.821,53.665v20.322
	l-124.879-52.431c-1.881-0.79-3.999-0.79-5.881,0l-124.881,52.431v-20.322l32.435-13.618c3.868-1.623,5.686-6.075,4.063-9.943l0,0
	c-1.623-3.868-6.075-5.686-9.943-4.063l-37.09,15.572c-2.82,1.184-4.655,3.944-4.655,7.003v36.607c0,1.762,0.521,3.516,1.621,4.891
	c2.206,2.757,5.847,3.59,8.914,2.301l6.852-2.876v28.577L4.969,312.232c-2.821,1.184-4.656,3.944-4.656,7.004v36.623
	c0,1.702,0.487,3.397,1.521,4.749c1.525,1.993,3.79,3.024,6.074,3.024c0.994,0,1.994-0.195,2.938-0.591l5.566-2.335v100.932H7.887
	c-4.195,0-7.595,3.401-7.595,7.595v35.171c0,4.195,3.401,7.595,7.595,7.595H361.41c4.195,0,7.595-3.401,7.595-7.595l0,0
	c0-4.195-3.401-7.595-7.595-7.595H15.483v-19.981h481.034v19.981h-99.661c-4.195,0-7.595,3.401-7.595,7.595l0,0
	c0,4.195,3.401,7.595,7.595,7.595h107.256c4.195,0,7.595-3.401,7.595-7.595v-35.171
	C511.707,465.039,508.306,461.638,504.112,461.638z M253.08,126.249l-5.131,2.154V82.91c0-4.195-3.401-7.595-7.595-7.595h-39.374
	V58.18h39.374c4.195,0,7.595-3.401,7.595-7.595V15.191h17.226v35.394c0,4.195,3.4,7.595,7.595,7.595h39.374v17.135H272.77
	c-4.196,0-7.595,3.401-7.595,7.595v45.947l-6.214-2.609C257.08,125.458,254.961,125.458,253.08,126.249z M480.396,461.638h-98.793
	V312.88l98.793,41.452L480.396,461.638L480.396,461.638z M496.496,324.287v20.327l-114.892-48.207V276.08L496.496,324.287z
	 M256.021,178.285l110.393,46.348v237.005h-58.369v-65.307c0-27.273-22.187-49.46-49.46-49.46h-3.102
	c-27.273,0-49.46,22.188-49.46,49.46v65.307h-60.436V224.651L256.021,178.285z M265.232,461.638v-32.992h27.62v32.992H265.232z
	 M292.854,413.456h-27.62v-50.742c15.724,3.105,27.62,16.996,27.62,33.618V413.456z M250.042,413.456h-28.83v-17.125
	c0-17.046,12.51-31.219,28.83-33.833V413.456z M221.212,428.647h28.83v32.992h-28.83V428.647z M15.503,324.287l114.892-48.207
	v20.327L15.503,344.613V324.287z M31.603,354.332l98.793-41.452v148.758H31.603V354.332z"/>
<g>
</g>
<g>
</g>
<g>
</g>
<g>
</g>
<g>
</g>
<g>
</g>
<g>
</g>
<g>
</g>
<g>
</g>
<g>
</g>
<g>
</g>
<g>
</g>
<g>
</g>
<g>
</g>
<g>
</g>
</svg>
