<?xml version="1.0" encoding="iso-8859-1"?>
<!-- Generator: Adobe Illustrator 19.0.0, SVG Export Plug-In . SVG Version: 6.00 Build 0)  -->
<svg version="1.1" id="Capa_1" xmlns="http://www.w3.org/2000/svg" xmlns:xlink="http://www.w3.org/1999/xlink" x="0px" y="0px"
	 viewBox="0 0 511.999 511.999" style="enable-background:new 0 0 511.999 511.999;" xml:space="preserve">
<rect x="8.472" y="27.066" style="fill:#FF317D;" width="495.06" height="26.513"/>
<polyline style="fill:#FFBCCC;" points="331.295,53.581 477.013,53.581 477.013,469.236 34.988,469.236 34.988,53.581 
	180.706,53.581 "/>
<polyline style="fill:#E09BAF;" points="331.295,53.581 477.013,53.581 477.013,79.77 34.988,79.77 34.988,53.581 180.706,53.581 
	"/>
<g>
	<rect x="71.132" y="85.482" style="fill:#A0D9F2;" width="59.243" height="72.703"/>
	<rect x="181.426" y="338.395" style="fill:#A0D9F2;" width="149.141" height="148.311"/>
</g>
<rect x="181.426" y="338.395" style="fill:#82BBCE;" width="149.141" height="48.577"/>
<g>
	<rect x="381.627" y="85.482" style="fill:#A0D9F2;" width="59.243" height="72.703"/>
	<rect x="71.132" y="206.197" style="fill:#A0D9F2;" width="59.243" height="72.703"/>
	<rect x="381.627" y="206.197" style="fill:#A0D9F2;" width="59.243" height="72.703"/>
	<rect x="174.631" y="206.197" style="fill:#A0D9F2;" width="59.243" height="72.703"/>
	<rect x="278.129" y="206.197" style="fill:#A0D9F2;" width="59.243" height="72.703"/>
</g>
<rect x="7.888" y="469.237" style="fill:#423E3E;" width="496.225" height="35.171"/>
<rect x="180.707" y="7.595" style="fill:#DFE8ED;" width="150.589" height="150.589"/>
<rect x="154.144" y="320.926" style="fill:#FF317D;" width="203.716" height="34.936"/>
<g>
	<rect x="71.132" y="326.972" style="fill:#A0D9F2;" width="59.243" height="72.703"/>
	<rect x="381.627" y="326.972" style="fill:#A0D9F2;" width="59.243" height="72.703"/>
</g>
<path style="fill:#FF317D;" d="M256,125.387c0,0,20.867-18.88,35.11-33.123c14.243-14.243,19.873-35.11,1.325-47.696
	C273.887,31.981,256,51.856,256,51.856s-17.886-19.873-36.435-7.287s-12.918,33.454,1.325,47.696
	C235.133,106.507,256,125.387,256,125.387z"/>
<path d="M504.113,461.638h-19.505V171.822c0-4.195-3.401-7.595-7.595-7.595l0,0c-4.195,0-7.595,3.401-7.595,7.595v289.815H338.165
	v-98.184h19.693c4.195,0,7.595-3.401,7.595-7.595v-34.936c0-4.195-3.401-7.595-7.595-7.595H154.143
	c-4.195,0-7.595,3.401-7.595,7.595v34.936c0,4.195,3.401,7.595,7.595,7.595h19.693v98.184H42.583v-42.729
	c0-4.195-3.401-7.595-7.595-7.595l0,0c-4.195,0-7.595,3.401-7.595,7.595v42.729H7.887c-4.195,0-7.595,3.401-7.595,7.595v35.171
	c0,4.195,3.401,7.595,7.595,7.595h496.225c4.195,0,7.595-3.401,7.595-7.595v-35.171
	C511.708,465.039,508.308,461.638,504.113,461.638z M322.975,461.638h-58.796v-98.184h58.796L322.975,461.638L322.975,461.638z
	 M161.738,328.517h188.525v19.746H330.57H181.431h-19.693V328.517z M189.026,363.454h59.963v98.184h-59.963V363.454z
	 M496.518,496.809H15.483v-19.981h19.455c0.016,0,0.032,0.002,0.049,0.002H181.43h149.14h146.442c0.016,0,0.032-0.002,0.049-0.002
	h19.456v19.981H496.518z"/>
<path d="M8.471,61.177h18.92v322.286c0,4.195,3.401,7.595,7.595,7.595l0,0c4.195,0,7.595-3.401,7.595-7.595V61.177h130.528v97.006
	c0,4.195,3.401,7.595,7.595,7.595h150.588c4.195,0,7.595-3.401,7.595-7.595V61.177h130.528v75.199c0,4.195,3.401,7.595,7.595,7.595
	l0,0c4.195,0,7.595-3.401,7.595-7.595V61.177h18.92c4.195,0,7.595-3.401,7.595-7.595V27.066c0-4.195-3.401-7.595-7.595-7.595
	H338.889V7.595c0-4.195-3.401-7.595-7.595-7.595H180.706c-4.195,0-7.595,3.401-7.595,7.595V19.47H8.471
	c-4.195,0-7.595,3.401-7.595,7.595v26.517C0.876,57.777,4.277,61.177,8.471,61.177z M495.933,34.661v11.326h-18.91
	c-0.003,0-0.006,0-0.01,0H338.889V34.661H495.933z M188.301,15.191h135.398v11.875v26.517v97.006H188.301V53.582V27.066V15.191z
	 M16.067,34.661h157.044v11.326H34.988c-0.003,0-0.006,0-0.01,0H16.067V34.661z"/>
<path d="M137.972,85.48c0-4.195-3.401-7.595-7.595-7.595h-59.24c-4.195,0-7.595,3.401-7.595,7.595v72.703
	c0,4.195,3.401,7.595,7.595,7.595h59.24c4.195,0,7.595-3.401,7.595-7.595V85.48z M122.781,150.588h-44.05V93.076h44.05
	C122.781,93.076,122.781,150.588,122.781,150.588z"/>
<path d="M448.459,85.48c0-4.195-3.401-7.595-7.595-7.595h-59.24c-4.195,0-7.595,3.401-7.595,7.595v72.703
	c0,4.195,3.401,7.595,7.595,7.595h59.24c4.195,0,7.595-3.401,7.595-7.595V85.48z M433.268,150.588h-44.05V93.076h44.05V150.588z"/>
<path d="M137.972,206.195c0-4.195-3.401-7.595-7.595-7.595h-59.24c-4.195,0-7.595,3.401-7.595,7.595v72.703
	c0,4.195,3.401,7.595,7.595,7.595h59.24c4.195,0,7.595-3.401,7.595-7.595V206.195z M122.781,271.302h-44.05V213.79h44.05
	C122.781,213.79,122.781,271.302,122.781,271.302z"/>
<path d="M448.459,206.195c0-4.195-3.401-7.595-7.595-7.595h-59.24c-4.195,0-7.595,3.401-7.595,7.595v72.703
	c0,4.195,3.401,7.595,7.595,7.595h59.24c4.195,0,7.595-3.401,7.595-7.595V206.195z M433.268,271.302h-44.05V213.79h44.05V271.302z"
	/>
<path d="M130.377,319.382h-59.24c-4.195,0-7.595,3.401-7.595,7.595v72.703c0,4.195,3.401,7.595,7.595,7.595h59.24
	c4.195,0,7.595-3.401,7.595-7.595v-72.703C137.972,322.781,134.572,319.382,130.377,319.382z M122.781,392.084h-44.05v-57.512h44.05
	C122.781,334.571,122.781,392.084,122.781,392.084z"/>
<path d="M440.864,319.382h-59.24c-4.195,0-7.595,3.401-7.595,7.595v72.703c0,4.195,3.401,7.595,7.595,7.595h59.24
	c4.195,0,7.595-3.401,7.595-7.595v-72.703C448.459,322.781,445.058,319.382,440.864,319.382z M433.268,392.084h-44.05v-57.512h44.05
	V392.084z"/>
<path d="M174.633,198.599c-4.195,0-7.595,3.401-7.595,7.595v72.703c0,4.195,3.401,7.595,7.595,7.595h59.24
	c4.195,0,7.595-3.401,7.595-7.595v-72.703c0-4.195-3.401-7.595-7.595-7.595L174.633,198.599L174.633,198.599z M226.278,271.302
	h-44.05V213.79h44.05V271.302z"/>
<path d="M278.128,198.599c-4.195,0-7.595,3.401-7.595,7.595v72.703c0,4.195,3.401,7.595,7.595,7.595h59.24
	c4.195,0,7.595-3.401,7.595-7.595v-72.703c0-4.195-3.401-7.595-7.595-7.595L278.128,198.599L278.128,198.599z M329.773,271.302
	h-44.05V213.79h44.05V271.302z"/>
<path d="M250.905,131.019c1.446,1.308,3.271,1.963,5.096,1.963s3.65-0.654,5.096-1.963c0.211-0.19,21.173-19.172,35.385-33.384
	c10.766-10.766,16.298-23.713,15.177-35.522c-0.907-9.565-6.08-17.806-14.959-23.831c-15.373-10.432-31.146-4.045-40.7,3.317
	c-9.554-7.361-25.328-13.749-40.7-3.317c-8.878,6.025-14.051,14.265-14.959,23.831c-1.12,11.808,4.411,24.756,15.177,35.522
	C229.732,111.847,250.694,130.829,250.905,131.019z M215.464,63.548c0.472-4.977,3.287-9.249,8.366-12.695
	c2.977-2.021,5.979-2.8,8.839-2.8c9.406,0,17.276,8.437,17.685,8.883c1.433,1.592,3.482,2.492,5.624,2.501
	c2.155,0.018,4.199-0.898,5.646-2.477c0.557-0.608,13.776-14.774,26.546-6.108c5.079,3.446,7.893,7.718,8.366,12.695
	c0.681,7.177-3.355,15.905-10.796,23.346c-9.707,9.706-22.682,21.734-29.74,28.21c-7.058-6.476-20.032-18.503-29.739-28.21
	C218.819,79.453,214.783,70.725,215.464,63.548z"/>
<path d="M233.721,394.89c-4.195,0-7.595,3.401-7.595,7.595v26.33c0,4.195,3.401,7.595,7.595,7.595c4.195,0,7.595-3.401,7.595-7.595
	v-26.33C241.316,398.291,237.916,394.89,233.721,394.89z"/>
<path d="M278.28,436.411c4.195,0,7.595-3.401,7.595-7.595v-26.33c0-4.195-3.401-7.595-7.595-7.595c-4.195,0-7.595,3.401-7.595,7.595
	v26.33C270.685,433.01,274.085,436.411,278.28,436.411z"/>
<g>
</g>
<g>
</g>
<g>
</g>
<g>
</g>
<g>
</g>
<g>
</g>
<g>
</g>
<g>
</g>
<g>
</g>
<g>
</g>
<g>
</g>
<g>
</g>
<g>
</g>
<g>
</g>
<g>
</g>
</svg>
