<?xml version="1.0" encoding="iso-8859-1"?>
<!-- Generator: Adobe Illustrator 19.0.0, SVG Export Plug-In . SVG Version: 6.00 Build 0)  -->
<svg version="1.1" id="Capa_1" xmlns="http://www.w3.org/2000/svg" xmlns:xlink="http://www.w3.org/1999/xlink" x="0px" y="0px"
	 viewBox="0 0 512 512" style="enable-background:new 0 0 512 512;" xml:space="preserve">
<polygon style="fill:#D5D8DB;" points="131.374,377.749 158.893,335.763 263.723,346.397 298.639,389.342 143.7,417.804 "/>
<polygon style="fill:#E30E08;" points="386.387,47.23 318.401,17.727 318.401,76.734 "/>
<path style="fill:#E3E8EC;" d="M318.404,66.228v261.938c-52.448-23.115-112.473-25.576-160.546-21.95
	c-51.496,3.879-89.257,14.768-89.257,14.768L318.404,66.228z"/>
<polygon style="fill:#FCC400;" points="318.4,89.016 439.959,357.033 318.4,357.033 "/>
<path style="fill:#D5D8DB;" d="M318.404,66.228L157.858,306.216c-51.496,3.879-89.257,14.768-89.257,14.768L318.404,66.228z"/>
<path style="fill:#E3E8EC;" d="M504.171,504.402H87.492L7.948,369.361l-0.081-0.142c-0.01-0.02-0.02-0.03-0.02-0.03l482.255,33.426
	l9.663,69.88L504.171,504.402z"/>
<path style="fill:#D5D8DB;" d="M504.171,504.402H87.492L7.948,369.361c2.867,4.609,65.069,103.134,158.54,103.134h333.277
	L504.171,504.402z"/>
<path style="fill:#E30E08;" d="M318.404,216.361v37.356c0,0-54.545-16.824-115.259-15.194c-21.038,0.567-42.805,3.353-63.307,9.815
	h-0.01l45.216-46.118h0.01c14.596-1.337,29.101-1.428,42.886-0.76C277.948,203.882,318.404,216.361,318.404,216.361z"/>
<path style="fill:#C40606;" d="M227.941,201.462l-24.796,37.062c-21.038,0.567-42.805,3.353-63.307,9.815l45.216-46.118
	C199.651,200.884,214.156,200.793,227.941,201.462z"/>
<circle style="fill:#515B65;" cx="96.601" cy="416.285" r="15.193"/>
<path d="M511.665,503.166l-14.043-101.595c-0.492-3.561-3.413-6.29-7-6.538l-42.164-2.922c-4.185-0.29-7.814,2.868-8.103,7.053l0,0
	c-0.29,4.185,2.868,7.814,7.053,8.103l36.009,2.496l12.031,87.043H91.829L21.711,377.763l391.246,27.117
	c4.185,0.29,7.814-2.868,8.103-7.053l0,0c0.29-4.185-2.868-7.814-7.053-8.103l-88.011-6.1v-18.993h133.393
	c4.16,0,7.787-3.205,7.912-7.363c0.13-4.302-3.32-7.831-7.594-7.831h-14.853L325.997,87.374v-5.655L389.412,54.2
	c2.776-1.204,4.572-3.942,4.572-6.969c0-3.027-1.796-5.764-4.572-6.969l-63.415-27.52V7.915c0-4.16-3.205-7.787-7.363-7.912
	c-4.302-0.13-7.831,3.32-7.831,7.594v55.527L17.502,362.241l-9.133-0.633c-2.81-0.203-5.503,1.183-6.986,3.583
	c-1.483,2.399-1.516,5.421-0.084,7.851l79.643,135.216c1.365,2.319,3.855,3.742,6.545,3.742h416.681c3.056,0,5.904-1.84,7.093-4.861
	C511.755,505.883,511.85,504.503,511.665,503.166z M325.998,29.306l41.307,17.925l-41.307,17.925V29.306z M144.836,371.067
	l17.881-27.281l97.102,9.852l21.884,26.915L144.836,371.067z M143.889,255.048c65.775-19.959,145.735-1.235,166.914,4.428v57.356
	c-54.957-21.059-115.997-21.438-158.688-17.781c-24.053,2.061-44.737,5.516-59.76,8.553L143.889,255.048z M428.172,349.436H325.997
	V124.158L428.172,349.436z M310.803,206.391c-5.994-1.535-14.487-3.537-24.841-5.512c-4.179-0.797-8.205,1.972-8.929,6.165v0.002
	c-0.705,4.078,1.987,7.977,6.052,8.754c12.407,2.371,22.113,4.799,27.718,6.308v21.62c-23.864-6.17-86.773-19.662-146.988-9.001
	l24.66-25.149c17.985-1.453,37.414-1.171,57.919,0.872c4.127,0.411,7.829-2.538,8.318-6.656v-0.001
	c0.5-4.215-2.55-8.037-6.773-8.459c-15.159-1.513-29.788-2.108-43.744-1.788L310.804,84.824v121.567H310.803z M72.582,327.77
	c16.672-4.424,140.633-34.988,238.221,5.417v49.382l-8.349-0.578l-32.835-40.386c-1.273-1.566-3.119-2.562-5.128-2.765
	l-104.831-10.635c-2.819-0.279-5.566,1.023-7.121,3.394l-25.08,38.265l-90.033-6.241L72.582,327.77z"/>
<path d="M73.812,416.285c0,12.566,10.223,22.789,22.789,22.789s22.79-10.223,22.79-22.789c0-12.566-10.223-22.79-22.79-22.79
	C84.037,393.495,73.812,403.719,73.812,416.285z M104.198,416.285c0,4.188-3.407,7.596-7.597,7.596
	c-4.188,0-7.596-3.407-7.596-7.596s3.407-7.597,7.596-7.597C100.791,408.688,104.198,412.097,104.198,416.285z"/>
<g>
</g>
<g>
</g>
<g>
</g>
<g>
</g>
<g>
</g>
<g>
</g>
<g>
</g>
<g>
</g>
<g>
</g>
<g>
</g>
<g>
</g>
<g>
</g>
<g>
</g>
<g>
</g>
<g>
</g>
</svg>
