<?xml version="1.0" encoding="iso-8859-1"?>
<!-- Generator: Adobe Illustrator 19.0.0, SVG Export Plug-In . SVG Version: 6.00 Build 0)  -->
<svg version="1.1" id="Capa_1" xmlns="http://www.w3.org/2000/svg" xmlns:xlink="http://www.w3.org/1999/xlink" x="0px" y="0px"
	 viewBox="0 0 512.001 512.001" style="enable-background:new 0 0 512.001 512.001;" xml:space="preserve">
<rect x="35.139" y="170.734" style="fill:#C6CAD5;" width="441.729" height="309.096"/>
<rect x="35.139" y="170.734" style="fill:#A3A8B2;" width="441.729" height="45.622"/>
<polyline style="fill:#B90000;" points="388.804,181.383 504.397,181.383 454.052,94.687 350.538,94.687 161.464,94.687 
	57.95,94.687 7.604,181.383 123.197,181.383 "/>
<polygon style="fill:#ECEDF2;" points="388.799,153.852 388.799,469.184 123.198,469.184 123.198,153.852 148.514,131.964 
	256.004,38.983 363.453,131.933 "/>
<polygon style="fill:#C6CAD5;" points="388.799,155.272 388.799,184.268 380.587,184.268 256.004,69.399 131.41,184.268 
	123.198,184.268 123.198,155.272 148.514,131.964 238.981,48.644 256.004,32.949 273.016,48.644 363.453,131.933 "/>
<rect x="183.002" y="340.799" style="fill:#A0D9F2;" width="145.986" height="145.986"/>
<rect x="183.002" y="340.799" style="fill:#82BBCE;" width="145.986" height="44.569"/>
<rect x="7.604" y="469.185" style="fill:#423E3E;" width="496.792" height="35.211"/>
<polygon style="fill:#D81616;" points="131.414,158.924 256,44.049 380.587,158.924 420.289,158.924 273.016,23.291 256,7.604 
	238.985,23.291 91.712,158.924 "/>
<circle style="fill:#A0D9F2;" cx="256" cy="168.068" r="52.721"/>
<polygon style="fill:#D81616;" points="256,355.374 347.769,355.374 256,289.135 164.232,355.374 "/>
<g>
	<rect x="35.139" y="241.167" style="fill:#A0D9F2;" width="53.228" height="66.912"/>
	<rect x="35.139" y="343.06" style="fill:#A0D9F2;" width="53.228" height="66.912"/>
	<rect x="423.642" y="241.167" style="fill:#A0D9F2;" width="53.228" height="66.912"/>
	<rect x="423.642" y="343.06" style="fill:#A0D9F2;" width="53.228" height="66.912"/>
	<rect x="150.133" y="224.438" style="fill:#A0D9F2;" width="53.228" height="66.912"/>
	<rect x="308.64" y="224.438" style="fill:#A0D9F2;" width="53.228" height="66.912"/>
</g>
<path d="M504.397,461.581h-19.93v-51.61v-66.912v-34.977V241.17v-52.183h19.706c2.164,0,4.292-0.812,5.767-2.395
	c2.345-2.516,2.689-6.176,1.033-9.027l-50.344-86.697c-1.361-2.343-3.866-3.786-6.576-3.786H353.507L278.172,17.7L261.155,2.014
	c-2.912-2.685-7.396-2.685-10.308,0l-17.013,15.685l-75.339,69.384H119.64c-4.199,0-7.604,3.405-7.604,7.604l0,0
	c0,4.199,3.405,7.604,7.604,7.604h22.342l-55.261,50.893c-1.871,1.723-2.906,4.242-2.549,6.76c0.55,3.874,3.818,6.585,7.54,6.585
	h23.882v7.251H35.139H20.813l41.514-71.489h21.826c4.199,0,7.604-3.405,7.604-7.604l0,0c0-4.199-3.405-7.604-7.604-7.604H57.95
	c-2.71,0-5.215,1.442-6.576,3.786L1.138,177.377c-1.087,1.871-1.451,4.119-0.82,6.19c1.002,3.289,3.993,5.421,7.287,5.421h19.929
	v52.183v66.912v34.977v66.912v51.61H7.604c-4.199,0-7.604,3.405-7.604,7.604v35.211c0,4.199,3.405,7.604,7.604,7.604h496.792
	c4.199,0,7.604-3.405,7.604-7.604v-35.211C512,464.985,508.597,461.581,504.397,461.581z M469.259,402.367h-38.018v-51.704h38.018
	L469.259,402.367L469.259,402.367z M469.259,300.478h-38.018v-51.704h38.018L469.259,300.478L469.259,300.478z M449.674,102.291
	l41.514,71.489h-14.325h-80.459v-7.251h23.886c3.133,0,5.944-1.921,7.084-4.839c1.139-2.918,0.372-6.236-1.932-8.358l-55.421-51.041
	H449.674z M244.139,28.883l11.862-10.936l11.864,10.939l132.943,122.435h-17.25L261.155,38.459c-2.912-2.685-7.397-2.685-10.309,0
	L128.444,151.32h-17.25L244.139,28.883z M131.414,166.528c1.91,0,3.75-0.719,5.154-2.014L256,54.392l119.432,110.123
	c1.404,1.295,3.244,2.014,5.155,2.014h0.608v87.717h0.005v14.299c0,4.199,3.405,7.604,7.604,7.604l0,0
	c4.199,0,7.604-3.405,7.604-7.604v-79.557h72.85v44.579h-45.622c-4.199,0-7.604,3.405-7.604,7.604v66.912
	c0,4.199,3.405,7.604,7.604,7.604h45.622v19.769h-45.622c-4.199,0-7.604,3.405-7.604,7.604v66.912c0,4.199,3.405,7.604,7.604,7.604
	h45.622v44.006h-72.85V304.031c0-4.199-3.405-7.604-7.604-7.604l0,0c-4.199,0-7.604,3.405-7.604,7.604v25.241h-0.005v132.309
	h-44.597v-98.602h10.88c2.986,0,5.837-1.594,7.133-4.284c1.628-3.378,0.565-7.352-2.392-9.486l-91.769-66.239
	c-2.657-1.919-6.243-1.917-8.901,0l-91.535,66.07c-2.421,1.748-3.799,4.708-3.274,7.648c0.659,3.691,3.845,6.29,7.491,6.29h11.171
	v98.602h-44.601V166.528H131.414z M321.392,461.58h-57.787v-98.602h57.786v98.602H321.392z M187.759,347.77l68.242-49.256
	l68.242,49.256H187.759z M248.397,362.978v98.602h-57.787v-98.602H248.397z M42.743,248.775h38.018v51.704H42.743V248.775z
	 M42.743,350.663h38.018v51.704H42.743V350.663z M42.743,417.575h45.622c4.199,0,7.604-3.405,7.604-7.604v-66.912
	c0-4.199-3.405-7.604-7.604-7.604H42.743v-19.769h45.622c4.199,0,7.604-3.405,7.604-7.604V241.17c0-4.199-3.405-7.604-7.604-7.604
	H42.743v-44.579h72.85v272.594h-72.85V417.575z M496.793,496.792H15.208v-20.003h19.93h88.058h59.81h145.989h59.81h88.058h19.929
	V496.792z"/>
<path d="M255.999,228.391c33.264,0,60.325-27.061,60.325-60.325s-27.061-60.325-60.325-60.325s-60.325,27.061-60.325,60.325
	S222.736,228.391,255.999,228.391z M255.999,122.949c24.878,0,45.117,20.239,45.117,45.117s-20.239,45.117-45.117,45.117
	c-24.878,0-45.117-20.239-45.117-45.117S231.121,122.949,255.999,122.949z"/>
<path d="M255.999,175.67h20.933c4.199,0,7.604-3.405,7.604-7.604c0-4.199-3.405-7.604-7.604-7.604h-13.329v-23.716
	c0-4.199-3.405-7.604-7.604-7.604c-4.199,0-7.604,3.405-7.604,7.604v31.32C248.395,172.265,251.799,175.67,255.999,175.67z"/>
<path d="M150.136,298.958h53.226c4.199,0,7.604-3.405,7.604-7.604v-66.912c0-4.199-3.405-7.604-7.604-7.604h-53.226
	c-4.199,0-7.604,3.405-7.604,7.604v66.912C142.532,295.554,145.937,298.958,150.136,298.958z M157.74,232.048h38.018v51.704H157.74
	V232.048z"/>
<path d="M301.032,224.444v66.912c0,4.199,3.405,7.604,7.604,7.604h53.226c4.199,0,7.604-3.405,7.604-7.604v-66.912
	c0-4.199-3.405-7.604-7.604-7.604h-53.226C304.436,216.84,301.032,220.244,301.032,224.444z M316.24,232.048h38.018v51.704H316.24
	L316.24,232.048L316.24,232.048z"/>
<g>
</g>
<g>
</g>
<g>
</g>
<g>
</g>
<g>
</g>
<g>
</g>
<g>
</g>
<g>
</g>
<g>
</g>
<g>
</g>
<g>
</g>
<g>
</g>
<g>
</g>
<g>
</g>
<g>
</g>
</svg>
