<?xml version="1.0" encoding="iso-8859-1"?>
<!-- Generator: Adobe Illustrator 19.0.0, SVG Export Plug-In . SVG Version: 6.00 Build 0)  -->
<svg version="1.1" id="Capa_1" xmlns="http://www.w3.org/2000/svg" xmlns:xlink="http://www.w3.org/1999/xlink" x="0px" y="0px"
	 viewBox="0 0 512 512" style="enable-background:new 0 0 512 512;" xml:space="preserve">
<path style="fill:#F9C500;" d="M262.233,332.981h186.204c30.942,0,55.976-25.034,55.976-55.976v-32.043
	c0-21.228-11.816-39.754-29.339-49.167c-9.613,16.823-27.738,28.239-48.566,28.239H347.85h-24.533H85.493
	c-20.828,0-38.953-11.416-48.566-28.239c-17.524,9.412-29.34,27.937-29.34,49.166v32.043c0,30.942,25.034,55.976,55.976,55.976
	h126.172h72.499V332.981z"/>
<path style="fill:#E0AB03;" d="M481.818,316.291H295.614h-72.498H96.944c-30.942,0-55.976-25.034-55.976-55.976v-32.043
	c0-7.581,1.513-14.814,4.25-21.413c-3.197-3.324-5.99-7.037-8.29-11.063c-17.525,9.412-29.341,27.937-29.341,49.166v32.043
	c0,30.942,25.034,55.976,55.976,55.976h126.172h72.498h186.204c15.843,0,30.124-6.573,40.302-17.13
	C486.47,316.129,484.164,316.291,481.818,316.291z"/>
<path d="M15.174,277.004v-32.043c0-15.473,7.333-29.794,19.512-38.791c11.91,15.864,30.74,25.449,50.807,25.449h271.163
	c4.19,0,7.587-3.397,7.587-7.587l0,0c0-4.19-3.397-7.587-7.587-7.587H85.493c-16.896,0-32.623-8.952-41.361-23.414l-2.737-15.053
	c-0.744-4.087-4.541-7.079-8.648-6.459c-4.251,0.641-7.101,4.661-6.338,8.861l2.111,11.61C10.802,203.63,0,223.445,0,244.961v32.043
	c0,35.105,28.458,63.563,63.563,63.563h33.113c4.19,0,7.587-3.397,7.587-7.587l0,0c0-4.19-3.397-7.587-7.587-7.587H63.563
	C36.838,325.394,15.174,303.73,15.174,277.004z"/>
<path d="M483.481,191.99l2.065-11.355c0.69-3.796-1.42-7.674-5.097-8.838c-4.449-1.407-8.977,1.424-9.784,5.867l-2.794,15.366
	c-8.739,14.464-24.466,23.414-41.361,23.414h-34.444c-4.19,0-7.587,3.397-7.587,7.587l0,0c0,4.19,3.397,7.587,7.587,7.587h34.444
	c20.067,0,38.897-9.585,50.807-25.449c12.179,8.997,19.512,23.316,19.512,38.791v32.043c0,26.724-21.664,48.389-48.389,48.389
	H132.083c-4.19,0-7.587,3.397-7.587,7.587l0,0c0,4.19,3.397,7.587,7.587,7.587h316.354c35.105,0,63.563-28.458,63.563-63.563V244.96
	C512,223.445,501.199,203.63,483.481,191.99z"/>
<path d="M132.285,302.501c1.481,1.481,3.423,2.222,5.365,2.222c1.941,0,3.884-0.741,5.364-2.222c2.963-2.963,2.963-7.767,0-10.729
	l-12.843-12.843l12.843-12.843c2.963-2.963,2.963-7.767,0-10.729c-2.963-2.963-7.767-2.963-10.729,0l-12.843,12.843l-12.843-12.843
	c-2.963-2.963-7.767-2.963-10.729,0c-2.963,2.963-2.963,7.767,0,10.729l12.843,12.843l-12.843,12.843
	c-2.963,2.963-2.963,7.767,0,10.729c1.481,1.481,3.423,2.222,5.365,2.222s3.884-0.741,5.365-2.222l12.843-12.843L132.285,302.501z"
	/>
<path d="M234.053,255.356c-2.963-2.963-7.767-2.963-10.729,0l-12.843,12.843l-12.843-12.843c-2.963-2.963-7.767-2.963-10.729,0
	c-2.963,2.963-2.963,7.767,0,10.729l12.843,12.843l-12.843,12.843c-2.963,2.963-2.963,7.767,0,10.729
	c1.481,1.481,3.423,2.222,5.365,2.222c1.941,0,3.884-0.741,5.364-2.222l12.843-12.843l12.843,12.843
	c1.481,1.481,3.423,2.222,5.365,2.222c1.941,0,3.884-0.741,5.364-2.222c2.963-2.963,2.963-7.767,0-10.729l-12.843-12.843
	l12.843-12.843C237.016,263.122,237.016,258.318,234.053,255.356z"/>
<path d="M325.092,255.356c-2.963-2.963-7.767-2.963-10.729,0l-12.843,12.843l-12.843-12.843c-2.963-2.963-7.767-2.963-10.729,0
	c-2.963,2.963-2.963,7.767,0,10.729l12.843,12.843l-12.843,12.843c-2.963,2.963-2.963,7.767,0,10.729
	c1.481,1.481,3.423,2.222,5.365,2.222s3.884-0.741,5.365-2.222l12.843-12.843l12.843,12.843c1.481,1.481,3.423,2.222,5.365,2.222
	c1.941,0,3.884-0.741,5.365-2.222c2.963-2.963,2.963-7.767,0-10.729l-12.843-12.843l12.843-12.843
	C328.055,263.122,328.055,258.318,325.092,255.356z"/>
<path d="M368.986,302.501c1.481,1.481,3.423,2.222,5.365,2.222c1.941,0,3.884-0.741,5.365-2.222l12.843-12.843l12.843,12.843
	c1.481,1.481,3.423,2.222,5.365,2.222s3.884-0.741,5.365-2.222c2.963-2.963,2.963-7.767,0-10.729l-12.843-12.843l12.843-12.843
	c2.963-2.963,2.963-7.767,0-10.729c-2.963-2.963-7.767-2.963-10.729,0l-12.843,12.843l-12.843-12.843
	c-2.963-2.963-7.767-2.963-10.729,0c-2.963,2.963-2.963,7.767,0,10.729l12.843,12.843l-12.843,12.843
	C366.023,294.734,366.023,299.538,368.986,302.501z"/>
<g>
</g>
<g>
</g>
<g>
</g>
<g>
</g>
<g>
</g>
<g>
</g>
<g>
</g>
<g>
</g>
<g>
</g>
<g>
</g>
<g>
</g>
<g>
</g>
<g>
</g>
<g>
</g>
<g>
</g>
</svg>
