<?xml version="1.0" encoding="iso-8859-1"?>
<!-- Generator: Adobe Illustrator 19.0.0, SVG Export Plug-In . SVG Version: 6.00 Build 0)  -->
<svg version="1.1" id="Capa_1" xmlns="http://www.w3.org/2000/svg" xmlns:xlink="http://www.w3.org/1999/xlink" x="0px" y="0px"
	 viewBox="0 0 512 512" style="enable-background:new 0 0 512 512;" xml:space="preserve">
<g>
	<rect x="154.614" y="368.812" style="fill:#D5D6DB;" width="48.665" height="135.583"/>
	<rect x="308.721" y="368.812" style="fill:#D5D6DB;" width="48.665" height="135.583"/>
</g>
<g>
	<rect x="154.614" y="368.812" style="fill:#C4C4C6;" width="48.665" height="62.859"/>
	<rect x="308.721" y="368.812" style="fill:#C4C4C6;" width="48.665" height="62.859"/>
</g>
<path style="fill:#0087C8;" d="M119.129,274.523v72.308h273.742v-72.308v-42.582V51.443c0-24.211-19.628-43.839-43.839-43.839
	H162.968c-24.211,0-43.839,19.628-43.839,43.839v180.497"/>
<path style="fill:#006FAC;" d="M148.531,231.941V51.443c0-24.211,19.628-43.839,43.839-43.839h-29.402
	c-24.211,0-43.839,19.628-43.839,43.839v180.497v42.582v72.308h29.402v-72.308V231.941z"/>
<polyline style="fill:#C4C4C6;" points="358.907,317.105 358.907,274.523 392.871,274.523 392.871,346.831 119.129,346.831 
	119.129,274.523 153.093,274.523 153.093,317.105 "/>
<path style="fill:#0087C8;" d="M363.145,392.13H148.856c-16.417,0-29.726-13.309-29.726-29.726v-15.573
	c0-16.417,13.309-29.726,29.726-29.726h214.288c16.417,0,29.726,13.309,29.726,29.726v15.572
	C392.871,378.821,379.562,392.13,363.145,392.13z"/>
<g>
	<path style="fill:#006FAC;" d="M152.586,362.404v-15.573c0-16.417,13.309-29.726,29.726-29.726h-33.457
		c-16.417,0-29.726,13.309-29.726,29.726v15.572c0,16.417,13.309,29.726,29.726,29.726h33.457
		C165.896,392.13,152.586,378.821,152.586,362.404z"/>
	<path style="fill:#006FAC;" d="M336.603,83.917c-11.199,0-20.277,9.078-20.277,20.277v171.847
		c0,21.977-16.169,40.177-37.259,43.358v0.495h13.685c24.219,0,43.851-19.633,43.851-43.851L336.603,83.917L336.603,83.917z"/>
</g>
<g>
	<rect x="358.907" y="231.941" style="fill:#EAE8EB;" width="58.804" height="42.582"/>
	<rect x="94.289" y="231.941" style="fill:#EAE8EB;" width="58.804" height="42.582"/>
</g>
<rect x="209.362" y="7.605" style="fill:#D5D6DB;" width="93.275" height="120.923"/>
<path d="M417.711,224.337h-17.236V151.34c0-4.199-3.405-7.604-7.604-7.604l0,0c-4.199,0-7.604,3.405-7.604,7.604v72.997h-26.36
	c-4.199,0-7.604,3.405-7.604,7.604v42.582v34.978h-19.721c7.828-8.451,12.625-19.747,12.625-32.146V84.235
	c0-4.164-3.209-7.795-7.371-7.919c-4.306-0.129-7.837,3.323-7.837,7.601v193.437c0,17.754-14.393,32.146-32.146,32.146h-14.998
	h-51.708h-14.998c-17.754,0-32.146-14.393-32.146-32.146V84.235c0-4.164-3.209-7.795-7.371-7.919
	c-4.306-0.129-7.837,3.323-7.837,7.601v193.437c0,12.4,4.797,23.696,12.625,32.146h-19.722v-34.978v-42.582
	c0-4.199-3.405-7.604-7.604-7.604h-26.36V51.443c0-20.013,16.224-36.235,36.236-36.235h38.789v113.319
	c0,4.199,3.405,7.604,7.604,7.604h93.275c4.199,0,7.604-3.405,7.604-7.604V15.208h38.79c20.013,0,36.235,16.223,36.235,36.235
	v64.409c0,4.199,3.405,7.604,7.604,7.604l0,0c4.199,0,7.604-3.405,7.604-7.604V51.443C400.475,23.032,377.443,0,349.032,0H162.968
	c-28.41,0-51.443,23.032-51.443,51.443v172.893H94.289c-4.199,0-7.604,3.405-7.604,7.604v42.582c0,4.199,3.405,7.604,7.604,7.604
	h17.236v64.704l0,0l0,0v15.572c0,19.965,15.755,36.318,35.485,37.284v22.35c0,4.199,3.405,7.604,7.604,7.604l0,0
	c4.199,0,7.604-3.405,7.604-7.604v-22.302h33.457v97.058h-33.457v-39.268c0-4.199-3.405-7.604-7.604-7.604l0,0
	c-4.199,0-7.604,3.405-7.604,7.604v46.872c0,4.199,3.405,7.604,7.604,7.604h48.665c4.199,0,7.604-3.405,7.604-7.604V399.734h90.233
	v104.662c0,4.199,3.405,7.604,7.604,7.604h48.665c4.199,0,7.604-3.405,7.604-7.604V399.688c19.73-0.965,35.485-17.319,35.485-37.284
	v-15.573l0,0l0,0v-64.704h17.236c4.199,0,7.604-3.405,7.604-7.604v-42.582C425.315,227.741,421.911,224.337,417.711,224.337z
	 M295.034,120.923h-78.067V15.209h78.067V120.923z M230.147,324.709h51.709h14.998h66.292c9.528,0,17.669,6.055,20.776,14.518
	H128.08c3.107-8.464,11.248-14.518,20.776-14.518h66.292H230.147z M101.893,239.545h43.596v27.374h-43.596V239.545z
	 M145.489,282.127v27.533c-6.979,0.628-13.41,3.179-18.756,7.125v-34.659H145.489z M349.782,496.792h-33.457v-97.058h33.457V496.792
	z M363.145,384.526H148.856c-12.199,0-22.122-9.925-22.122-22.122v-7.969h258.534v7.969
	C385.267,374.602,375.343,384.526,363.145,384.526z M385.267,316.785c-5.346-3.947-11.777-6.499-18.756-7.125v-27.533h18.756
	V316.785z M410.107,266.919h-43.596v-27.374h43.596V266.919z"/>
<g>
</g>
<g>
</g>
<g>
</g>
<g>
</g>
<g>
</g>
<g>
</g>
<g>
</g>
<g>
</g>
<g>
</g>
<g>
</g>
<g>
</g>
<g>
</g>
<g>
</g>
<g>
</g>
<g>
</g>
</svg>
