<?xml version="1.0" encoding="iso-8859-1"?>
<!-- Generator: Adobe Illustrator 19.0.0, SVG Export Plug-In . SVG Version: 6.00 Build 0)  -->
<svg version="1.1" id="Capa_1" xmlns="http://www.w3.org/2000/svg" xmlns:xlink="http://www.w3.org/1999/xlink" x="0px" y="0px"
	 viewBox="0 0 512.001 512.001" style="enable-background:new 0 0 512.001 512.001;" xml:space="preserve">
<path style="fill:#0080BF;" d="M131.279,74.687c-14.254-14.254-37.364-14.254-51.618,0s-14.254,37.364,0,51.618"/>
<path style="fill:#0276A3;" d="M93.963,65.86c-5.227,1.732-10.143,4.668-14.302,8.828c-14.254,14.254-14.254,37.364,0,51.618
	l23.129-23.129C92.695,93.08,89.76,78.546,93.963,65.86z"/>
<polyline style="fill:#515B65;" points="187.347,304.579 164.614,327.312 184.688,347.385 207.421,324.652 324.651,207.421 
	347.383,184.69 327.31,164.616 304.578,187.348 "/>
<path style="fill:#D5D6DB;" d="M218.763,146.901c13.528-0.868,27.357,3.871,37.702,14.216l123.151,123.151l-95.349,95.349
	L161.117,256.466c-11.156-11.156-15.794-26.36-13.908-40.878"/>
<path style="fill:#C4C4C6;" d="M177.182,186.815l-29.975,28.773c-1.886,14.517,2.753,29.723,13.908,40.878l123.151,123.151
	l30.11-30.11l-123.15-123.151C180.412,215.542,175.742,200.925,177.182,186.815z"/>
<path style="fill:#D5D6DB;" d="M218.763,146.901c18.124-44.276,9.205-97.012-26.741-132.958L18.917,187.048
	c34.691,34.691,85.025,44.204,128.291,28.54L218.763,146.901z"/>
<path style="fill:#C4C4C6;" d="M187.355,175.441c-43.266,15.664-93.6,6.151-128.291-28.54l-40.147,40.147
	c34.691,34.691,85.025,44.204,128.291,28.54l71.554-68.687c0.348-0.85,0.667-1.708,0.995-2.564L187.355,175.441z"/>
<g>
	
		<rect x="19.11" y="335.195" transform="matrix(-0.7071 0.7071 -0.7071 -0.7071 481.1574 586.4744)" style="fill:#0080BF;" width="200.013" height="115.386"/>
	
		<rect x="292.883" y="61.421" transform="matrix(0.7071 -0.7071 0.7071 0.7071 30.8485 312.7023)" style="fill:#0080BF;" width="200.013" height="115.386"/>
</g>
<rect x="219.603" y="269.789" transform="matrix(-0.7071 0.7071 -0.7071 -0.7071 692.9376 287.0253)" style="fill:#F2B400;" width="134.842" height="34.471"/>
<rect x="233.1" y="302.407" transform="matrix(-0.7071 0.7071 -0.7071 -0.7071 660.2935 365.7826)" style="fill:#D19602;" width="42.582" height="34.471"/>
<path d="M509.648,83.696L428.181,2.228c-1.427-1.427-3.361-2.227-5.378-2.227c-2.017,0-3.95,0.801-5.378,2.227L276.118,143.535
	c-0.749,0.749-1.388,1.617-1.784,2.601c-1.191,2.954-0.449,6.172,1.659,8.279l25.383,25.383l-7.739,7.739l-31.795-31.795
	c-8.82-8.821-20.238-14.384-32.406-16.023c14.609-46.06,2.58-96.534-32.036-131.151c-1.426-1.427-3.36-2.227-5.378-2.227
	c-2.018,0-3.95,0.801-5.378,2.227l-55.84,55.84c-17.197-12.083-41.157-10.458-56.522,4.903
	c-15.361,15.362-16.987,39.324-4.903,56.521l-55.716,55.716c-0.749,0.749-1.387,1.617-1.783,2.6c-1.19,2.953-0.449,6.171,1.66,8.278
	c12.247,12.247,26.408,21.717,42.182,28.223c4.038,1.666,8.647-0.452,10.064-4.585l0.001-0.002c1.303-3.804-0.586-7.954-4.303-9.489
	c-11.58-4.783-22.178-11.381-31.641-19.696L191.847,24.873c28.266,32.229,36.296,77.46,20.469,117.677l-69.192,66.419
	c-15.446,5.349-31.974,7.335-48.279,5.835c-4.002-0.368-7.601,2.425-8.217,6.396v0.003c-0.669,4.313,2.418,8.337,6.764,8.738
	c4.004,0.37,8.019,0.555,12.031,0.555c11.45,0,22.875-1.506,33.926-4.474c0.947,13.419,6.634,26.064,16.39,35.822l31.795,31.795
	l-7.738,7.738l-25.382-25.382c-1.426-1.427-3.36-2.227-5.378-2.227c-2.018,0-3.95,0.801-5.378,2.227L2.227,417.427
	c-2.97,2.97-2.97,7.784,0,10.753l81.594,81.594c1.485,1.484,3.432,2.227,5.378,2.227c1.946,0,3.892-0.742,5.378-2.227
	L236.008,368.34c2.97-2.97,2.97-7.784,0-10.753l-25.384-25.384l7.738-7.738l60.528,60.529c1.427,1.427,3.36,2.227,5.378,2.227
	s3.95-0.801,5.378-2.227l95.349-95.349c2.97-2.97,2.97-7.784,0-10.753l-32.728-32.728c-0.002-0.002-0.003-0.004-0.005-0.005
	l-24.375-24.375l-3.42-3.42l7.739-7.739l25.384,25.384c1.485,1.484,3.431,2.227,5.378,2.227c1.946,0,3.892-0.742,5.378-2.227
	l103.212-103.213c2.97-2.97,2.97-7.784,0-10.754l0,0c-2.97-2.97-7.784-2.97-10.754,0l-4.797,4.797l-70.84-70.84l37.641-37.64
	l70.84,70.841l-8.403,8.402c-2.97,2.97-2.97,7.784,0,10.754l0,0c2.97,2.97,7.784,2.97,10.753,0l13.779-13.779
	c2.107-2.107,2.85-5.325,1.659-8.279C511.036,85.313,510.397,84.445,509.648,83.696z M85.036,80.064
	c9.407-9.407,23.733-10.952,34.764-4.654l-39.418,39.417C74.086,103.796,75.633,89.469,85.036,80.064z M100.643,340.518
	l70.841,70.84l-33.891,33.891l-70.841-70.84L100.643,340.518z M89.197,493.644l-70.84-70.84l37.641-37.641l70.84,70.841
	L89.197,493.644z M182.236,400.604l-70.841-70.84l37.641-37.641l70.84,70.841L182.236,400.604z M154.499,219.129l67.417-64.716
	c10.918,0.004,21.415,4.322,29.172,12.08l60.665,60.664l-84.595,84.595l-60.664-60.664
	C157.975,242.572,153.683,231.043,154.499,219.129z M242.717,327.314l-4.806-4.806l84.595-84.596l13.621,13.622l-84.595,84.595
	L242.717,327.314z M199.872,321.447l-9.319-9.32l7.735-7.735l9.319,9.319L199.872,321.447z M284.266,368.864l-21.98-21.98
	l84.595-84.596l21.98,21.981L284.266,368.864z M304.39,198.29l7.736-7.736l9.319,9.319l-7.736,7.736L304.39,198.29z
	 M362.963,219.878l-70.841-70.84l37.641-37.64l70.84,70.84L362.963,219.878z M445.248,137.592l-33.891,33.891l-70.84-70.84
	l33.891-33.891L445.248,137.592z"/>
<g>
</g>
<g>
</g>
<g>
</g>
<g>
</g>
<g>
</g>
<g>
</g>
<g>
</g>
<g>
</g>
<g>
</g>
<g>
</g>
<g>
</g>
<g>
</g>
<g>
</g>
<g>
</g>
<g>
</g>
</svg>
