<?xml version="1.0" encoding="iso-8859-1"?>
<!-- Generator: Adobe Illustrator 19.0.0, SVG Export Plug-In . SVG Version: 6.00 Build 0)  -->
<svg version="1.1" id="Capa_1" xmlns="http://www.w3.org/2000/svg" xmlns:xlink="http://www.w3.org/1999/xlink" x="0px" y="0px"
	 viewBox="0 0 512 512" style="enable-background:new 0 0 512 512;" xml:space="preserve">
<rect x="8.471" y="27.066" style="fill:#F1C400;" width="495.06" height="26.513"/>
<polyline style="fill:#DFE8ED;" points="331.294,53.581 477.012,53.581 477.012,469.236 34.986,469.236 34.986,53.581 
	180.704,53.581 "/>
<g>
	<rect x="71.132" y="85.482" style="fill:#A0D9F2;" width="59.243" height="72.703"/>
	<rect x="117.139" y="338.385" style="fill:#A0D9F2;" width="277.734" height="148.311"/>
</g>
<rect x="117.139" y="338.385" style="fill:#82BBCE;" width="277.734" height="48.577"/>
<g>
	<rect x="102.586" y="338.385" style="fill:#FFFFFF;" width="29.104" height="148.311"/>
	<rect x="380.31" y="338.385" style="fill:#FFFFFF;" width="29.104" height="148.311"/>
</g>
<g>
	<rect x="102.586" y="338.385" style="fill:#F2F0F0;" width="29.104" height="44.812"/>
	<rect x="380.31" y="338.385" style="fill:#F2F0F0;" width="29.104" height="44.812"/>
</g>
<g>
	<rect x="381.627" y="85.482" style="fill:#A0D9F2;" width="59.243" height="72.703"/>
	<rect x="71.132" y="206.197" style="fill:#A0D9F2;" width="59.243" height="72.703"/>
	<rect x="381.627" y="206.197" style="fill:#A0D9F2;" width="59.243" height="72.703"/>
	<rect x="174.63" y="206.197" style="fill:#A0D9F2;" width="59.243" height="72.703"/>
	<rect x="278.129" y="206.197" style="fill:#A0D9F2;" width="59.243" height="72.703"/>
</g>
<rect x="7.886" y="469.237" style="fill:#423E3E;" width="496.225" height="35.171"/>
<rect x="180.706" y="7.595" style="fill:#E05C69;" width="150.589" height="150.589"/>
<polygon style="fill:#FFFFFF;" points="271.19,36.56 271.19,68.459 240.809,68.459 240.809,36.56 211.949,36.56 211.949,129.218 
	240.809,129.218 240.809,97.32 271.19,97.32 271.19,129.218 300.05,129.218 300.05,36.56 "/>
<rect x="71.132" y="320.926" style="fill:#525C5E;" width="369.728" height="34.936"/>
<path d="M504.113,461.638h-19.505V61.177h18.92c4.196,0,7.595-3.401,7.595-7.595V27.066c0-4.195-3.4-7.595-7.595-7.595h-164.64
	V7.595c0-4.195-3.4-7.595-7.595-7.595H180.705c-4.196,0-7.595,3.401-7.595,7.595V19.47H8.472c-4.196,0-7.595,3.401-7.595,7.595
	v26.517c0,4.195,3.4,7.595,7.595,7.595h18.92v400.461H7.887c-4.196,0-7.595,3.401-7.595,7.595v35.171c0,4.195,3.4,7.595,7.595,7.595
	h496.225c4.196,0,7.595-3.401,7.595-7.595v-35.171C511.708,465.039,508.307,461.638,504.113,461.638z M495.932,34.661v11.326h-18.91
	c-0.003,0-0.006,0-0.01,0H338.888V34.661H495.932z M16.067,34.661H173.11v11.326H34.986c-0.003,0-0.006,0-0.01,0H16.067V34.661z
	 M42.582,61.177H173.11v25.608h15.191V53.582V27.066V15.191h135.397v11.875v26.517v97.006H188.301v-43.547H173.11v51.143
	c0,4.195,3.401,7.595,7.595,7.595h150.587c4.195,0,7.595-3.401,7.595-7.595V61.177h130.529v400.461h-20.506v-50.777
	c0-4.159-3.205-7.786-7.362-7.91c-4.301-0.129-7.828,3.32-7.828,7.592v51.096h-16.709v-98.184h23.851
	c4.195,0,7.595-3.401,7.595-7.595v-34.936c0-4.195-3.401-7.595-7.595-7.595h-66.312c-4.195,0-7.595,3.401-7.595,7.595l0,0
	c0,4.195,3.401,7.595,7.595,7.595h58.717v19.746h-23.851h-29.103h-49.744H181.43h-49.743h-29.103H78.731v-19.746h260.372
	c4.195,0,7.595-3.401,7.595-7.595l0,0c0-4.195-3.401-7.595-7.595-7.595H71.136c-4.195,0-7.595,3.401-7.595,7.595v34.936
	c0,4.195,3.401,7.595,7.595,7.595h23.852v98.184h-16.71v-50.777c0-4.159-3.205-7.786-7.362-7.91
	c-4.301-0.129-7.828,3.32-7.828,7.592v51.096H42.582V61.177z M173.834,363.454v98.184h-34.552v-98.184H173.834z M372.717,363.454
	v98.184h-34.553v-98.184H372.717z M401.821,461.638h-13.913v-98.184h13.913V461.638z M322.973,461.638h-58.795v-98.184h58.795
	V461.638z M248.989,461.638h-59.964v-98.184h59.964V461.638z M124.091,461.638h-13.913v-98.184h13.913V461.638z M496.517,496.809
	H15.483v-19.981h19.455c0.016,0,0.032,0.002,0.049,0.002h67.596h29.103h49.743h149.14h49.744h29.103h67.596
	c0.016,0,0.032-0.002,0.049-0.002h19.455v19.981H496.517z"/>
<path d="M211.949,136.813h28.861c4.196,0,7.595-3.401,7.595-7.595v-24.304h15.189v24.304c0,4.195,3.4,7.595,7.595,7.595h28.861
	c4.196,0,7.595-3.401,7.595-7.595V36.561c0-4.195-3.4-7.595-7.595-7.595H271.19c-4.196,0-7.595,3.401-7.595,7.595v24.303h-15.189
	V36.561c0-4.195-3.4-7.595-7.595-7.595h-28.861c-4.196,0-7.595,3.401-7.595,7.595v92.658
	C204.354,133.413,207.754,136.813,211.949,136.813z M219.545,44.156h13.67v24.303c0,4.195,3.4,7.595,7.595,7.595h30.379
	c4.196,0,7.595-3.401,7.595-7.595V44.156h13.671v77.468h-13.671V97.32c0-4.195-3.4-7.595-7.595-7.595H240.81
	c-4.196,0-7.595,3.401-7.595,7.595v24.304h-13.67V44.156z"/>
<path d="M71.136,165.778h59.24c4.196,0,7.595-3.401,7.595-7.595V85.48c0-4.195-3.4-7.595-7.595-7.595h-59.24
	c-4.196,0-7.595,3.401-7.595,7.595v72.703C63.541,162.377,66.94,165.778,71.136,165.778z M78.731,93.076h44.05v57.512h-44.05V93.076
	z"/>
<path d="M381.622,165.778h59.24c4.196,0,7.595-3.401,7.595-7.595V85.48c0-4.195-3.4-7.595-7.595-7.595h-59.24
	c-4.196,0-7.595,3.401-7.595,7.595v72.703C374.027,162.377,377.427,165.778,381.622,165.778z M389.217,93.076h44.05v57.512h-44.05
	V93.076z"/>
<path d="M71.136,286.493h59.24c4.196,0,7.595-3.401,7.595-7.595v-72.703c0-4.195-3.4-7.595-7.595-7.595h-59.24
	c-4.196,0-7.595,3.401-7.595,7.595v72.703C63.541,283.092,66.94,286.493,71.136,286.493z M78.731,213.79h44.05v57.512h-44.05V213.79
	z"/>
<path d="M381.622,286.493h59.24c4.196,0,7.595-3.401,7.595-7.595v-72.703c0-4.195-3.4-7.595-7.595-7.595h-59.24
	c-4.196,0-7.595,3.401-7.595,7.595v72.703C374.027,283.092,377.427,286.493,381.622,286.493z M389.217,213.79h44.05v57.512h-44.05
	V213.79z"/>
<path d="M174.631,286.493h59.24c4.196,0,7.595-3.401,7.595-7.595v-72.703c0-4.195-3.4-7.595-7.595-7.595h-59.24
	c-4.196,0-7.595,3.401-7.595,7.595v72.703C167.036,283.092,170.436,286.493,174.631,286.493z M182.227,213.79h44.05v57.512h-44.05
	L182.227,213.79L182.227,213.79z"/>
<path d="M278.127,286.493h59.24c4.196,0,7.595-3.401,7.595-7.595v-72.703c0-4.195-3.4-7.595-7.595-7.595h-59.24
	c-4.196,0-7.595,3.401-7.595,7.595v72.703C270.531,283.092,273.932,286.493,278.127,286.493z M285.722,213.79h44.05v57.512h-44.05
	V213.79z"/>
<g>
</g>
<g>
</g>
<g>
</g>
<g>
</g>
<g>
</g>
<g>
</g>
<g>
</g>
<g>
</g>
<g>
</g>
<g>
</g>
<g>
</g>
<g>
</g>
<g>
</g>
<g>
</g>
<g>
</g>
</svg>
