<?xml version="1.0" encoding="iso-8859-1"?>
<!-- Generator: Adobe Illustrator 19.0.0, SVG Export Plug-In . SVG Version: 6.00 Build 0)  -->
<svg version="1.1" id="Capa_1" xmlns="http://www.w3.org/2000/svg" xmlns:xlink="http://www.w3.org/1999/xlink" x="0px" y="0px"
	 viewBox="0 0 512 512" style="enable-background:new 0 0 512 512;" xml:space="preserve">
<rect x="73.677" y="104.529" style="fill:#9AA7B8;" width="107.246" height="42.406"/>
<rect x="73.677" y="104.529" style="fill:#8896A5;" width="33.218" height="42.406"/>
<polygon style="fill:#F42737;" points="504.396,128.675 504.396,443.875 7.604,443.875 7.604,286.827 53.3,128.675 "/>
<polygon style="fill:#F93A51;" points="504.396,128.675 504.396,314.202 7.604,314.202 7.604,286.827 53.3,128.675 "/>
<g>
	<rect x="7.601" y="391.766" style="fill:#9AA7B8;" width="97.878" height="52.112"/>
	<rect x="406.518" y="391.766" style="fill:#9AA7B8;" width="97.878" height="52.112"/>
</g>
<g>
	<circle style="fill:#2C4046;" cx="105.482" cy="443.879" r="59.498"/>
	<circle style="fill:#2C4046;" cx="416.707" cy="443.879" r="59.498"/>
</g>
<g>
	<circle style="fill:#9AA7B8;" cx="105.482" cy="443.879" r="26.667"/>
	<circle style="fill:#9AA7B8;" cx="416.707" cy="443.879" r="26.667"/>
</g>
<polyline style="fill:#A0D9F2;" points="7.604,286.832 130.859,286.832 130.859,177.342 40.316,177.342 "/>
<path style="fill:#F42737;" d="M96.336,104.528l2.383-27.841c0.679-7.959,7.34-14.072,15.33-14.072h26.492
	c7.989,0,14.65,6.114,15.33,14.072l2.383,27.841"/>
<path style="fill:#FC6B7D;" d="M114.048,62.615c-7.989,0-14.65,6.114-15.33,14.072l-2.383,27.841h16.898l2.383-27.841
	c0.679-7.959,7.34-14.072,15.33-14.072H114.048z"/>
<rect x="165.918" y="175.591" style="fill:#A0D9F2;" width="60.829" height="109.487"/>
<rect x="263.239" y="175.591" style="fill:#C51304;" width="203.938" height="109.487"/>
<rect x="263.239" y="175.591" style="fill:#E6E6E6;" width="135.259" height="109.487"/>
<rect x="7.604" y="314.206" style="fill:#F0C800;" width="33.528" height="48.663"/>
<circle style="fill:#E6E6E6;" cx="441.334" cy="334.726" r="25.852"/>
<path d="M105.479,478.144c18.897,0,34.271-15.373,34.271-34.271c0-18.897-15.373-34.271-34.271-34.271s-34.271,15.373-34.271,34.271
	C71.209,462.771,86.582,478.144,105.479,478.144z M105.479,424.811c10.511,0,19.063,8.551,19.063,19.063
	c0,10.512-8.552,19.063-19.063,19.063s-19.063-8.551-19.063-19.063C86.416,433.362,94.968,424.811,105.479,424.811z"/>
<path d="M416.709,478.144c18.897,0,34.271-15.373,34.271-34.271c0-18.897-15.373-34.271-34.271-34.271s-34.271,15.373-34.271,34.271
	C382.439,462.771,397.812,478.144,416.709,478.144z M416.709,424.811c10.511,0,19.063,8.551,19.063,19.063
	c0,10.512-8.552,19.063-19.063,19.063s-19.063-8.551-19.063-19.063C397.647,433.362,406.198,424.811,416.709,424.811z"/>
<path d="M512,165.532v-36.855c0-4.199-3.405-7.604-7.604-7.604h-22.25V63.636c0-4.199-3.405-7.604-7.604-7.604H247.306
	c-2.922,0-5.586,1.675-6.853,4.308l-29.213,60.733h-22.72v-16.54c0-4.199-3.405-7.604-7.604-7.604h-15.681l-1.788-20.888
	c-1.023-11.989-10.871-21.03-22.906-21.03h-26.492c-12.036,0-21.883,9.041-22.906,21.029l-1.787,20.89h-15.68
	c-4.199,0-7.604,3.405-7.604,7.604v16.54H53.303c-3.386,0-6.365,2.24-7.305,5.493L0.299,284.721C0.101,285.407,0,286.118,0,286.832
	v27.374v48.663v81.004c0,4.199,3.405,7.604,7.604,7.604h31.217c3.79,33.432,32.231,59.498,66.659,59.498s62.87-26.067,66.659-59.498
	h177.911c3.79,33.432,32.231,59.498,66.659,59.498s62.87-26.067,66.659-59.498h21.026c4.199,0,7.604-3.405,7.604-7.604V201.018
	c0-4.199-3.405-7.604-7.604-7.604l0,0c-4.199,0-7.604,3.405-7.604,7.604v183.138h-49.539c-9.169-4.709-19.547-7.385-30.544-7.385
	c-34.428,0-62.869,26.066-66.659,59.497H172.138c-3.79-33.431-32.232-59.497-66.659-59.497c-10.997,0-21.375,2.677-30.544,7.385
	H15.208v-13.684h25.93c4.199,0,7.604-3.405,7.604-7.604v-48.662c0-4.199-3.405-7.604-7.604-7.604h-25.93v-12.166h115.651
	c4.199,0,7.604-3.405,7.604-7.604v-109.49c0-4.199-3.405-7.604-7.604-7.604H49.354l9.667-33.456h14.653h107.241h315.877v29.251
	c0,4.199,3.405,7.604,7.604,7.604l0,0C508.595,173.136,512,169.732,512,165.532z M496.792,436.269h-13.425
	c-1.596-14.074-7.558-26.837-16.503-36.905h29.927V436.269z M416.709,391.979c28.615,0,51.895,23.279,51.895,51.894
	c0,28.615-23.279,51.895-51.895,51.895s-51.895-23.279-51.895-51.895C364.815,415.258,388.094,391.979,416.709,391.979z
	 M157.374,443.874c0,28.614-23.279,51.895-51.894,51.895s-51.894-23.279-51.894-51.895c0-28.615,23.279-51.894,51.894-51.894
	S157.374,415.259,157.374,443.874z M55.322,399.365c-8.943,10.068-14.907,22.83-16.503,36.905H15.208v-36.905H55.322z
	 M33.533,321.81v33.455H15.208V321.81H33.533z M123.255,279.228H69.171l7.856-94.282h46.228V279.228z M61.767,184.946l-7.856,94.282
	H17.716l27.242-94.282H61.767z M323.051,78.748l24.646,42.326h-49.292L323.051,78.748z M285.178,113.566L260.533,71.24h49.291
	L285.178,113.566z M336.278,71.24h49.292l-24.645,42.326L336.278,71.24z M398.796,78.748l24.645,42.326H374.15L398.796,78.748z
	 M412.023,71.24h49.292l-24.646,42.326L412.023,71.24z M466.938,91.806v29.267h-17.042L466.938,91.806z M247.946,79.847
	l24.005,41.227h-43.836L247.946,79.847z M106.295,77.334c0.347-4.056,3.679-7.115,7.753-7.115h26.492
	c4.075,0,7.407,3.059,7.753,7.117l1.677,19.592h-45.353L106.295,77.334z M81.278,121.073v-8.936h92.033v8.936H81.278z"/>
<path d="M127.295,39.142c4.2,0,7.604-3.405,7.604-7.604V8.628c0-4.199-3.404-7.604-7.604-7.604c-4.2,0-7.604,3.405-7.604,7.604
	v22.91C119.691,35.738,123.095,39.142,127.295,39.142z"/>
<path d="M84.786,42.529c1.283,2.783,4.034,4.423,6.91,4.423c1.065,0,2.146-0.225,3.177-0.7c3.814-1.757,5.481-6.274,3.724-10.088
	L89.01,15.359c-1.757-3.813-6.273-5.482-10.088-3.724c-3.814,1.757-5.481,6.274-3.724,10.088L84.786,42.529z"/>
<path d="M40.018,52.577l17.475,14.816c1.43,1.212,3.176,1.805,4.914,1.805c2.156,0,4.3-0.913,5.804-2.687
	c2.716-3.203,2.321-8.001-0.882-10.718L49.854,40.977c-3.204-2.716-8.002-2.321-10.718,0.883
	C36.42,45.063,36.815,49.861,40.018,52.577z"/>
<path d="M159.716,46.253c1.031,0.476,2.112,0.7,3.177,0.7c2.876,0,5.629-1.64,6.91-4.423l9.588-20.806
	c1.757-3.814,0.09-8.331-3.724-10.088c-3.814-1.758-8.331-0.091-10.088,3.724l-9.588,20.806
	C154.235,39.979,155.902,44.495,159.716,46.253z"/>
<path d="M192.184,69.197c1.738,0,3.485-0.592,4.914-1.805l17.474-14.816c3.203-2.716,3.598-7.514,0.882-10.718
	c-2.715-3.203-7.513-3.598-10.718-0.882l-17.475,14.816c-3.203,2.716-3.598,7.514-0.882,10.718
	C187.883,68.285,190.026,69.197,192.184,69.197z"/>
<path d="M226.744,292.685c4.2,0,7.604-3.405,7.604-7.604v-109.49c0-4.199-3.404-7.604-7.604-7.604h-60.829
	c-4.2,0-7.604,3.405-7.604,7.604v109.49c0,4.199,3.404,7.604,7.604,7.604L226.744,292.685L226.744,292.685z M173.518,183.195h45.621
	v94.282h-45.621V183.195z"/>
<path d="M474.785,175.591c0-4.199-3.404-7.604-7.604-7.604h-203.94c-4.2,0-7.604,3.405-7.604,7.604v109.49
	c0,4.199,3.404,7.604,7.604,7.604h203.94c4.2,0,7.604-3.405,7.604-7.604V175.591z M270.845,183.195h120.057v94.282H270.845V183.195z
	 M459.577,277.477H406.11v-94.282h53.467V277.477z"/>
<path d="M352.885,250.336h-41.059c-4.2,0-7.604,3.405-7.604,7.604c0,4.199,3.404,7.604,7.604,7.604h41.059
	c4.2,0,7.604-3.405,7.604-7.604C360.489,253.74,357.084,250.336,352.885,250.336z"/>
<path d="M441.329,301.272c-18.447,0-33.455,15.008-33.455,33.456s15.008,33.456,33.455,33.456c18.447,0,33.456-15.008,33.456-33.456
	S459.776,301.272,441.329,301.272z M441.329,352.976c-10.062,0-18.247-8.186-18.247-18.248c0-10.062,8.186-18.248,18.247-18.248
	c10.063,0,18.248,8.186,18.248,18.248S451.391,352.976,441.329,352.976z"/>
<path d="M403.069,314.206c0-4.199-3.404-7.604-7.604-7.604H76.114c-4.2,0-7.604,3.405-7.604,7.604c0,4.199,3.404,7.604,7.604,7.604
	h319.35C399.664,321.81,403.069,318.405,403.069,314.206z"/>
<path d="M189.089,336.617c-4.2,0-7.604,3.405-7.604,7.604s3.404,7.604,7.604,7.604h180.523c4.2,0,7.604-3.405,7.604-7.604
	s-3.404-7.604-7.604-7.604H189.089z"/>
<path d="M101.966,336.617c-4.2,0-7.604,3.405-7.604,7.604s3.404,7.604,7.604,7.604h56.705c4.2,0,7.604-3.405,7.604-7.604
	s-3.404-7.604-7.604-7.604H101.966z"/>
<g>
</g>
<g>
</g>
<g>
</g>
<g>
</g>
<g>
</g>
<g>
</g>
<g>
</g>
<g>
</g>
<g>
</g>
<g>
</g>
<g>
</g>
<g>
</g>
<g>
</g>
<g>
</g>
<g>
</g>
</svg>
