<?xml version="1.0" encoding="iso-8859-1"?>
<!-- Generator: Adobe Illustrator 19.0.0, SVG Export Plug-In . SVG Version: 6.00 Build 0)  -->
<svg version="1.1" id="Capa_1" xmlns="http://www.w3.org/2000/svg" xmlns:xlink="http://www.w3.org/1999/xlink" x="0px" y="0px"
	 viewBox="0 0 511.999 511.999" style="enable-background:new 0 0 511.999 511.999;" xml:space="preserve">
<polygon style="fill:#EBEBED;" points="338.788,67.677 173.212,93.129 7.635,67.677 7.635,418.862 173.212,444.314 338.788,418.862 
	504.364,444.314 504.364,93.129 "/>
<polygon style="fill:#C9C9C9;" points="338.788,418.862 173.212,444.314 173.212,93.129 338.788,67.677 "/>
<polygon style="fill:#00B7D1;" points="38.174,392.659 38.174,103.27 173.212,124.026 338.788,98.576 473.825,119.333 
	473.825,408.721 338.788,387.965 173.212,413.415 "/>
<polygon style="fill:#0299A5;" points="173.212,124.026 338.788,98.576 338.788,387.965 173.212,413.415 "/>
<g>
	<path style="fill:#5ECE15;" d="M78.998,194.409c23.679-23.679,64.13,16.796,64.13,30.538s-24.43,38.172-24.43,53.441
		s38.172,44.28,29.011,70.237c-9.162,25.957-56.495,35.118-47.334,12.215s6.897-53.952-1.527-79.398
		C90.423,255.996,46.169,227.238,78.998,194.409z"/>
	<path style="fill:#5ECE15;" d="M263.751,191.355c-30.728-30.728,120.624-24.43,154.215-15.269
		c33.591,9.162-25.194,48.861-25.194,67.947s19.086,63.366,3.817,63.366s-22.465-67.183-57.803-67.183s-41.445,88.56-55.188,102.302
		s-30.537-10.688-15.269-41.226s-27.034-42.125-27.034-59.999S280.547,208.151,263.751,191.355z"/>
	<path style="fill:#5ECE15;" d="M397.608,337.428c12.215-12.215,47.334-1.527,47.334,15.269c0,16.796-7.635,22.903-32.064,22.903
		C388.447,375.6,397.608,337.428,397.608,337.428z"/>
	<path style="fill:#5ECE15;" d="M176.259,159.658c12.215-12.215,47.334-1.527,47.334,15.269s-7.635,22.903-32.064,22.903
		S176.259,159.658,176.259,159.658z"/>
</g>
<path d="M505.525,85.583L339.949,60.131c-0.004-0.001-0.007,0-0.011-0.001c-0.343-0.053-0.687-0.073-1.03-0.078
	c-0.092-0.001-0.182,0.001-0.274,0.003c-0.289,0.006-0.575,0.027-0.86,0.065c-0.048,0.006-0.097,0.004-0.146,0.011L173.211,85.404
	L8.795,60.131c-0.158-0.024-0.315-0.033-0.472-0.047c-2.047-0.186-4.089,0.452-5.659,1.799c-0.422,0.362-0.8,0.767-1.129,1.204
	C0.548,64.398,0,66.007,0,67.677v351.185c0,1.649,0.526,3.189,1.43,4.45c1.163,1.62,2.949,2.775,5.044,3.097l165.576,25.45
	c0.257,0.04,0.515,0.046,0.774,0.059c0.129,0.006,0.259,0.03,0.387,0.03c0.353,0,0.703-0.032,1.051-0.08
	c0.037-0.005,0.073-0.003,0.109-0.008l164.417-25.272l164.417,25.272c0.387,0.059,0.775,0.089,1.161,0.089
	c1.811,0,3.578-0.645,4.972-1.841c1.691-1.451,2.663-3.567,2.663-5.794V93.129C512,89.36,509.249,86.156,505.525,85.583z
	 M15.27,412.312V76.575l150.306,23.104v15.449L39.335,95.724c-3.062-0.472-6.195,0.952-7.825,3.81
	c-0.679,1.191-0.97,2.565-0.97,3.936v289.189c0,3.769,2.75,6.973,6.474,7.546l36.532,5.615c4.168,0.64,8.065-2.218,8.706-6.386l0,0
	c0.64-4.168-2.218-8.065-6.386-8.707l-30.057-4.62v-273.94l119.767,18.41v273.94l-51.555-7.925c-4.168-0.64-8.065,2.218-8.706,6.386
	l0,0c-0.64,4.168,2.218,8.065,6.386,8.707l53.875,8.281v15.449L15.27,412.312z M390.169,272.537
	c1.624,6.721,4.327,17.913,4.722,24.358c-2.545-4.004-5.677-10.919-7.964-15.969c-8.293-18.314-19.347-42.692-40.504-47.492v-57.007
	c30.799,0.861,58.568,4.032,69.535,7.024c3.608,0.983,4.627,2.079,4.702,2.319c0.006,0.02,0.588,2.092-3.341,8.358
	c-3.225,5.143-8.198,11.097-13.005,16.856c-10.289,12.322-19.175,22.964-19.175,33.049
	C385.139,251.71,387.583,261.827,390.169,272.537z M259.742,255.117c-5.315-5.017-10.81-10.203-10.81-13.823
	c0-4.394,6.139-10.63,11.556-16.132c5.014-5.092,10.197-10.358,12.973-16.239c3.856-8.172,2.325-16.328-4.311-22.965
	c-0.742-0.742-1.202-1.318-1.481-1.724c3.612-2.744,19.802-8.087,63.484-8.027v57.399c-23.374,6.504-33.536,42.786-41.854,72.484
	c-3.456,12.337-7.756,27.69-11.097,31.031c-2.326,2.327-3.259,1.658-3.814,1.256c-3.988-2.875-8.007-16.107,0.774-33.67
	C287.062,280.905,270.62,265.386,259.742,255.117z M331.153,92.024l-150.307,23.104V99.679l150.307-23.104V92.024z M180.846,419.967
	l150.307-23.104v15.449l-150.307,23.104V419.967z M331.153,322.757v58.656l-150.307,23.104V203.206
	c2.833,1.346,6.346,2.259,10.682,2.259c20.619,0,39.7-3.699,39.7-30.538c0-9.952-7.552-19.021-20.204-24.261
	c-8.927-3.697-20.638-5.296-30.178-2.287v-17.8l150.307-23.104v53.461c-18.448-0.021-34.613,0.928-46.758,2.751
	c-17.226,2.585-26.647,6.732-30.543,13.449c-2.074,3.573-4.246,10.873,4.499,19.619c3.239,3.238,3.297,5.462-8.744,17.694
	c-7.474,7.592-15.945,16.196-15.945,26.845c0,10.204,7.929,17.688,15.597,24.927c11.824,11.161,18.741,18.662,12.243,31.657
	c-11.945,23.89-6.877,45.078,3.955,52.886c3.065,2.209,6.468,3.294,9.906,3.294c4.756,0,9.574-2.08,13.636-6.14
	c5.882-5.883,9.36-17.565,15.003-37.709c6.214-22.188,14.365-51.286,27.15-59.87v36.791c0,4.216,3.418,7.635,7.635,7.635l0,0
	c4.216,0,7.635-3.418,7.635-7.635v-37.585c11.984,5.439,19.968,23.049,26.595,37.685c7.035,15.536,12.592,27.807,23.572,27.807
	c4.128,0,7.733-1.691,10.149-4.761c6.011-7.636,3.26-20.676-1.727-41.321c-2.264-9.37-4.603-19.06-4.603-24.919
	c0-4.548,9.403-15.809,15.626-23.262c11.818-14.154,22.98-27.522,19.193-39.577c-1.895-6.034-7.026-10.231-15.25-12.473
	c-13.703-3.737-43.674-6.742-73.553-7.564v-53.684l119.767,18.41v273.94l-119.767-18.409v-58.656c0-4.216-3.418-7.635-7.635-7.635
	l0,0C334.572,315.122,331.153,318.541,331.153,322.757z M183.183,163.901c4.694-2.734,13.935-2.468,21.997,0.871
	c6.447,2.67,10.777,6.75,10.777,10.154c0,9.194,0,15.269-24.43,15.269c-3.811,0-5.362-1.343-6.286-2.512
	C181.255,182.642,181.968,170.807,183.183,163.901z M496.73,435.416l-150.307-23.104v-15.449l126.242,19.405
	c2.203,0.339,4.44-0.301,6.131-1.752c1.691-1.451,2.663-3.567,2.663-5.794V119.333c0-3.769-2.75-6.974-6.474-7.546L346.423,92.024
	V76.575l150.306,23.104v335.736H496.73z"/>
<path d="M116.519,380.968c14.292-2.461,32.401-12.838,38.388-29.801c6.953-19.698-6.814-38.934-17.876-54.39
	c-4.767-6.661-10.7-14.951-10.7-18.388c0-5.638,6.125-15.395,11.529-24.003c6.635-10.569,12.901-20.551,12.901-29.439
	c0-12.957-19.232-34.124-38.107-41.942c-15.069-6.241-28.941-4.111-39.056,6.006c-27.737,27.736-8.73,54.185,5.148,73.497
	c5.52,7.683,10.736,14.94,12.852,21.334c8.758,26.454,9.403,54.871,1.687,74.164c-3.632,9.081-0.649,14.792,1.452,17.389
	c3.279,4.051,8.598,6.159,15.312,6.159C112.083,381.552,114.247,381.359,116.519,380.968z M106.096,279.043
	c-2.85-8.61-8.727-16.787-14.949-25.445c-15.694-21.84-24.416-36.123-6.75-53.789c8.258-8.258,18.402-4.278,21.737-2.969
	c15.987,6.272,29.18,23.371,29.358,28.108c0,4.492-5.857,13.823-10.564,21.321c-6.817,10.859-13.866,22.088-13.866,32.121
	c0,8.338,6.28,17.114,13.552,27.275c9.468,13.23,20.199,28.224,15.895,40.422c-3.27,9.265-13.629,16.137-22.444,18.837
	c-5.952,1.823-9.852,1.472-11.21,0.931c0.04-0.396,0.178-1.098,0.609-2.176C116.593,340.851,116.082,309.212,106.096,279.043z"/>
<path d="M412.876,383.235c20.619,0,39.699-3.699,39.699-30.538c0-9.952-7.553-19.021-20.205-24.261
	c-12.452-5.159-30.335-6.234-40.162,3.594c-0.996,0.996-1.696,2.248-2.025,3.617c-0.634,2.642-5.896,26.182,4.408,39.252
	C397.59,378.701,403.198,383.235,412.876,383.235z M404.532,341.671c4.693-2.734,13.934-2.468,21.996,0.871
	c6.446,2.67,10.777,6.75,10.777,10.154c0,9.194,0,15.269-24.429,15.269c-3.81,0-5.362-1.343-6.287-2.512
	C402.604,360.412,403.318,348.576,404.532,341.671z"/>
<path d="M114.228,151.566c0.394,0.061,0.784,0.09,1.17,0.09c3.704,0,6.956-2.702,7.537-6.476c0.64-4.168-2.219-8.065-6.386-8.706
	l-54.846-8.431c-4.176-0.642-8.065,2.219-8.707,6.386c-0.64,4.168,2.219,8.065,6.386,8.706L114.228,151.566z"/>
<g>
</g>
<g>
</g>
<g>
</g>
<g>
</g>
<g>
</g>
<g>
</g>
<g>
</g>
<g>
</g>
<g>
</g>
<g>
</g>
<g>
</g>
<g>
</g>
<g>
</g>
<g>
</g>
<g>
</g>
</svg>
