<?xml version="1.0" encoding="iso-8859-1"?>
<!-- Generator: Adobe Illustrator 19.0.0, SVG Export Plug-In . SVG Version: 6.00 Build 0)  -->
<svg version="1.1" id="Capa_1" xmlns="http://www.w3.org/2000/svg" xmlns:xlink="http://www.w3.org/1999/xlink" x="0px" y="0px"
	 viewBox="0 0 512 512" style="enable-background:new 0 0 512 512;" xml:space="preserve">
<rect x="160.403" y="104.53" style="fill:#9AA7B8;" width="107.246" height="42.406"/>
<rect x="160.403" y="104.53" style="fill:#8896A5;" width="33.218" height="42.406"/>
<path style="fill:#E6E6E6;" d="M504.396,155.138v288.738H7.604V340.928c0-19.669,7.432-38.07,20.074-52.011
	c8.233-9.094,18.685-16.283,30.72-20.693l30.629-122.191c2.555-10.199,11.72-17.357,22.234-17.357h366.673
	C492.544,128.676,504.396,140.528,504.396,155.138z"/>
<path style="fill:#EFEFEF;" d="M504.396,155.138v133.779H27.678c8.233-9.094,18.685-16.283,30.72-20.693l30.629-122.191
	c2.555-10.199,11.72-17.357,22.234-17.357h366.673C492.544,128.676,504.396,140.528,504.396,155.138z"/>
<rect x="7.601" y="391.767" style="fill:#9AA7B8;" width="496.792" height="52.112"/>
<polygon style="fill:#0084BC;" points="423.684,212.064 399.776,178.016 368.942,199.666 368.942,161.991 327.339,161.991 
	327.339,199.666 296.507,178.016 272.599,212.064 311.943,239.691 272.599,267.318 296.507,301.366 327.339,279.716 
	327.339,317.391 368.942,317.391 368.942,279.716 399.776,301.366 423.684,267.318 384.339,239.691 "/>
<g>
	<circle style="fill:#2C4046;" cx="105.482" cy="443.879" r="59.498"/>
	<circle style="fill:#2C4046;" cx="416.707" cy="443.879" r="59.498"/>
</g>
<g>
	<circle style="fill:#9AA7B8;" cx="105.482" cy="443.879" r="26.667"/>
	<circle style="fill:#9AA7B8;" cx="416.707" cy="443.879" r="26.667"/>
</g>
<polyline style="fill:#A0D9F2;" points="58.398,268.226 177.521,268.226 177.521,180.382 79.955,180.382 "/>
<circle style="fill:#F7CD1C;" cx="46.232" cy="342.594" r="17.488"/>
<path style="fill:#F42737;" d="M183.06,104.529l2.383-27.841c0.679-7.959,7.34-14.072,15.33-14.072h26.492
	c7.989,0,14.65,6.114,15.33,14.072l2.383,27.841"/>
<path style="fill:#FC6B7D;" d="M200.772,62.616c-7.989,0-14.65,6.114-15.33,14.072l-2.383,27.841h16.898l2.383-27.841
	c0.679-7.959,7.34-14.072,15.33-14.072H200.772z"/>
<path d="M295.196,170.526c-1.986,0.348-3.753,1.47-4.912,3.121l-23.908,34.048c-2.414,3.437-1.585,8.18,1.853,10.593l30.482,21.405
	l-30.482,21.405c-3.438,2.413-4.267,7.156-1.853,10.593l23.908,34.047c1.159,1.651,2.926,2.773,4.912,3.121
	c1.991,0.347,4.03-0.107,5.681-1.267l18.86-13.243v23.044c0,4.199,3.404,7.604,7.604,7.604h41.603c4.2,0,7.604-3.405,7.604-7.604
	v-23.044l18.859,13.242c3.437,2.415,8.181,1.583,10.592-1.853l23.908-34.047c2.414-3.437,1.585-8.18-1.853-10.593l-30.482-21.405
	l30.482-21.405c3.438-2.413,4.267-7.156,1.853-10.593l-23.908-34.048c-2.413-3.436-7.156-4.267-10.592-1.853l-18.861,13.243v-23.044
	c0-4.199-3.404-7.604-7.604-7.604h-41.603c-4.2,0-7.604,3.405-7.604,7.604v23.044l-18.86-13.243
	C299.225,170.634,297.182,170.178,295.196,170.526z M322.97,205.889c2.321,1.63,5.358,1.832,7.877,0.524
	c2.516-1.309,4.097-3.909,4.097-6.747v-30.071h26.395v30.071c0,2.838,1.58,5.438,4.097,6.747c2.519,1.309,5.555,1.106,7.877-0.524
	l24.61-17.281l15.168,21.601l-33.121,23.258c-2.028,1.423-3.234,3.746-3.234,6.223c0,2.477,1.206,4.8,3.234,6.223l33.121,23.258
	l-15.168,21.601l-24.61-17.281c-2.321-1.63-5.357-1.832-7.877-0.524c-2.517,1.309-4.097,3.909-4.097,6.747v30.071h-26.395v-30.071
	c0-2.838-1.581-5.438-4.097-6.747c-2.517-1.309-5.555-1.106-7.877,0.524l-24.609,17.28l-15.168-21.601l33.121-23.258
	c2.028-1.423,3.234-3.746,3.234-6.223c0-2.477-1.206-4.8-3.234-6.223l-33.121-23.258l15.168-21.601L322.97,205.889z"/>
<path d="M105.479,409.604c-18.896,0-34.271,15.373-34.271,34.271s15.374,34.271,34.271,34.271s34.271-15.373,34.271-34.271
	S124.375,409.604,105.479,409.604z M105.479,462.936c-10.511,0-19.063-8.551-19.063-19.063c0-10.512,8.552-19.063,19.063-19.063
	s19.063,8.551,19.063,19.063C124.542,454.385,115.99,462.936,105.479,462.936z"/>
<path d="M416.708,409.604c-18.897,0-34.271,15.373-34.271,34.271s15.373,34.271,34.271,34.271s34.271-15.373,34.271-34.271
	S435.606,409.604,416.708,409.604z M416.708,462.936c-10.511,0-19.063-8.551-19.063-19.063c0-10.512,8.552-19.063,19.063-19.063
	c10.511,0,19.063,8.551,19.063,19.063C435.771,454.385,427.219,462.936,416.708,462.936z"/>
<path d="M477.932,121.074H342.687c-4.199,0-7.604,3.405-7.604,7.604l0,0c0,4.199,3.405,7.604,7.604,7.604h135.245
	c10.415,0,18.86,8.443,18.86,18.86v229.016h-49.539c-9.169-4.709-19.547-7.385-30.544-7.385c-10.996,0-21.375,2.677-30.544,7.385
	h-185.42c-4.199,0-7.604,3.405-7.604,7.604l0,0c0,4.199,3.405,7.604,7.604,7.604h165.806c-8.943,10.068-14.907,22.83-16.503,36.905
	h-177.91c-1.596-14.074-7.558-26.837-16.503-36.905h9.624c4.199,0,7.604-3.405,7.604-7.604l0,0c0-4.199-3.405-7.604-7.604-7.604
	h-29.237c-9.169-4.709-19.547-7.385-30.545-7.385s-21.375,2.677-30.544,7.385H15.208v-43.23c0-28.75,17.878-54.739,44.612-65.098
	h117.701c4.199,0,7.604-3.405,7.604-7.604v-87.843c0-4.199-3.405-7.604-7.604-7.604H90.162l6.241-24.9
	c1.708-6.816,7.835-11.597,14.861-11.597h49.134h107.241h39.562c4.199,0,7.604-3.405,7.604-7.604l0,0
	c0-4.199-3.405-7.604-7.604-7.604h-31.958v-16.54c0-4.199-3.405-7.604-7.604-7.604h-15.681l-1.787-20.888
	c-1.023-11.989-10.871-21.03-22.906-21.03h-26.492c-12.035,0-21.882,9.041-22.906,21.029l-1.787,20.89h-15.681
	c-4.199,0-7.604,3.405-7.604,7.604v16.54h-41.529c-14.026,0-26.203,9.502-29.613,23.107L51.973,262.587
	C20.722,275.787,0,306.765,0,340.927v102.946c0,4.199,3.405,7.604,7.604,7.604H38.82c3.79,33.432,32.231,59.498,66.659,59.498
	s62.87-26.067,66.659-59.498H350.05c3.79,33.432,32.231,59.498,66.659,59.498s62.87-26.067,66.659-59.498h21.027
	c4.199,0,7.604-3.405,7.604-7.604V155.142C512,136.326,496.746,121.074,477.932,121.074z M193.019,77.335
	c0.347-4.056,3.679-7.115,7.753-7.115h26.492c4.074,0,7.407,3.059,7.753,7.117l1.677,19.592h-45.352L193.019,77.335z
	 M168.002,112.137h92.033v8.936h-92.033L168.002,112.137L168.002,112.137z M169.917,260.622h-60.209l10.06-72.635h50.151v72.635
	H169.917z M104.414,187.986l-10.06,72.635h-26.21l18.206-72.635L104.414,187.986L104.414,187.986z M15.208,399.365h40.114
	c-8.943,10.068-14.907,22.83-16.503,36.905H15.208V399.365z M105.479,495.769c-28.614,0-51.894-23.279-51.894-51.895
	c0-28.615,23.279-51.895,51.894-51.895s51.894,23.279,51.894,51.895C157.374,472.489,134.093,495.769,105.479,495.769z
	 M416.708,495.769c-28.615,0-51.895-23.279-51.895-51.895c0-28.615,23.279-51.895,51.895-51.895
	c28.615,0,51.894,23.279,51.894,51.895C468.603,472.489,445.323,495.769,416.708,495.769z M483.368,436.269
	c-1.596-14.074-7.558-26.837-16.503-36.905h29.927v36.905H483.368z"/>
<path d="M21.14,342.592c0,13.836,11.257,25.092,25.092,25.092s25.092-11.257,25.092-25.092S60.068,317.5,46.232,317.5
	S21.14,328.756,21.14,342.592z M56.116,342.592c0,5.451-4.435,9.884-9.884,9.884s-9.884-4.435-9.884-9.884s4.435-9.884,9.884-9.884
	S56.116,337.142,56.116,342.592z"/>
<path d="M214.018,39.143c4.199,0,7.604-3.405,7.604-7.604V8.628c0-4.199-3.405-7.604-7.604-7.604c-4.199,0-7.604,3.405-7.604,7.604
	v22.91C206.414,35.738,209.819,39.143,214.018,39.143z"/>
<path d="M171.51,42.53c1.283,2.784,4.034,4.423,6.91,4.423c1.065,0,2.147-0.225,3.177-0.7c3.814-1.758,5.481-6.275,3.723-10.088
	l-9.589-20.806c-1.757-3.814-6.274-5.481-10.089-3.724c-3.814,1.758-5.481,6.275-3.723,10.088L171.51,42.53z"/>
<path d="M126.742,52.577l17.475,14.816c1.43,1.212,3.175,1.805,4.913,1.805c2.156,0,4.3-0.912,5.804-2.687
	c2.716-3.203,2.321-8.001-0.883-10.718l-17.475-14.816c-3.205-2.716-8.002-2.321-10.718,0.883
	C123.144,45.063,123.539,49.861,126.742,52.577z"/>
<path d="M246.439,46.253c1.031,0.476,2.112,0.7,3.177,0.7c2.876,0,5.628-1.64,6.91-4.423l9.588-20.806
	c1.757-3.814,0.09-8.331-3.724-10.088c-3.814-1.758-8.33-0.091-10.088,3.724l-9.588,20.806
	C240.958,39.979,242.625,44.496,246.439,46.253z"/>
<path d="M278.906,69.197c1.738,0,3.485-0.592,4.914-1.805l17.475-14.816c3.203-2.716,3.598-7.514,0.882-10.718
	c-2.715-3.203-7.513-3.598-10.718-0.883l-17.475,14.818c-3.203,2.716-3.598,7.514-0.882,10.718
	C274.606,68.284,276.749,69.197,278.906,69.197z"/>
<g>
</g>
<g>
</g>
<g>
</g>
<g>
</g>
<g>
</g>
<g>
</g>
<g>
</g>
<g>
</g>
<g>
</g>
<g>
</g>
<g>
</g>
<g>
</g>
<g>
</g>
<g>
</g>
<g>
</g>
</svg>
