<?xml version="1.0" encoding="iso-8859-1"?>
<!-- Generator: Adobe Illustrator 19.0.0, SVG Export Plug-In . SVG Version: 6.00 Build 0)  -->
<svg version="1.1" id="Capa_1" xmlns="http://www.w3.org/2000/svg" xmlns:xlink="http://www.w3.org/1999/xlink" x="0px" y="0px"
	 viewBox="0 0 512 512" style="enable-background:new 0 0 512 512;" xml:space="preserve">
<path style="fill:#302C3A;" d="M7.604,329.611V182.389c0-27.658,22.422-50.08,50.08-50.08h396.633
	c27.658,0,50.08,22.422,50.08,50.08v147.223c0,27.658-22.422,50.08-50.08,50.08H57.684C30.026,379.691,7.604,357.27,7.604,329.611z"
	/>
<path style="fill:#93E043;" d="M150.571,258.16c0,3.38-0.302,6.691-0.873,9.907c-4.677,26.333-27.682,46.321-55.356,46.321
	s-50.678-19.987-55.356-46.321c-0.571-3.216-0.873-6.527-0.873-9.907c0-5.256,0.718-10.339,2.074-15.163h108.308
	C149.853,247.82,150.571,252.904,150.571,258.16z"/>
<path style="fill:#82C92B;" d="M150.571,258.16c0,3.38-0.302,6.691-0.873,9.907H38.987c-0.571-3.216-0.873-6.527-0.873-9.907
	c0-5.256,0.718-10.339,2.074-15.163l54.153-22.691l54.153,22.691C149.853,247.82,150.571,252.904,150.571,258.16z"/>
<path style="fill:#57555B;" d="M24.269,242.997h140.147l0,0c0-25.066-20.32-45.385-45.386-45.385H69.654
	C44.589,197.612,24.269,217.932,24.269,242.997L24.269,242.997z"/>
<path style="fill:#403F44;" d="M100.448,197.612H69.654c-25.066,0-45.386,20.32-45.386,45.385l0,0h30.795l0,0
	C55.064,217.932,75.383,197.612,100.448,197.612z"/>
<path style="fill:#E1383B;" d="M473.887,258.16c0,3.38-0.302,6.691-0.873,9.907c-4.677,26.333-27.682,46.321-55.356,46.321
	c-27.673,0-50.678-19.987-55.356-46.321c-0.571-3.216-0.873-6.527-0.873-9.907c0-5.256,0.718-10.339,2.074-15.163h108.308
	C473.169,247.82,473.887,252.904,473.887,258.16z"/>
<path style="fill:#C91F2F;" d="M473.887,258.16c0,3.38-0.302,6.691-0.873,9.907H362.303c-0.571-3.216-0.873-6.527-0.873-9.907
	c0-5.256,0.718-10.339,2.074-15.163l54.153-22.691l54.153,22.691C473.169,247.82,473.887,252.904,473.887,258.16z"/>
<path style="fill:#57555B;" d="M347.585,242.997h140.147l0,0c0-25.066-20.32-45.385-45.386-45.385h-49.376
	C367.905,197.612,347.585,217.932,347.585,242.997L347.585,242.997z"/>
<path style="fill:#403F44;" d="M423.765,197.612H392.97c-25.066,0-45.385,20.32-45.385,45.385l0,0h30.795l0,0
	C378.38,217.932,398.7,197.612,423.765,197.612z"/>
<path style="fill:#FAE50B;" d="M312.229,258.16c0,3.38-0.302,6.691-0.873,9.907c-4.677,26.333-27.682,46.321-55.356,46.321
	s-50.678-19.987-55.356-46.321c-0.571-3.216-0.873-6.527-0.873-9.907c0-5.256,0.718-10.339,2.074-15.163h108.308
	C311.511,247.82,312.229,252.904,312.229,258.16z"/>
<path style="fill:#EED800;" d="M312.229,258.16c0,3.38-0.302,6.691-0.873,9.907H200.645c-0.571-3.216-0.873-6.527-0.873-9.907
	c0-5.256,0.718-10.339,2.074-15.163L256,220.305l54.153,22.691C311.511,247.82,312.229,252.904,312.229,258.16z"/>
<path style="fill:#57555B;" d="M185.927,242.997h140.147l0,0c0-25.066-20.32-45.385-45.385-45.385h-49.376
	C206.247,197.612,185.927,217.932,185.927,242.997L185.927,242.997z"/>
<path style="fill:#403F44;" d="M262.107,197.612h-30.794c-25.066,0-45.385,20.32-45.385,45.385l0,0h30.795l0,0
	C216.722,217.932,237.042,197.612,262.107,197.612z"/>
<path d="M15.208,329.611V182.389c0-23.459,19.017-42.476,42.476-42.476h286.13c4.199,0,7.604-3.405,7.604-7.604l0,0
	c0-4.199-3.405-7.604-7.604-7.604H57.684C25.826,124.705,0,150.531,0,182.389v147.223c0,31.858,25.826,57.684,57.684,57.684h73.74
	c4.199,0,7.604-3.405,7.604-7.604l0,0c0-4.199-3.405-7.604-7.604-7.604h-73.74C34.225,372.087,15.208,353.07,15.208,329.611z"/>
<path d="M454.316,124.705h-75.016c-4.199,0-7.604,3.405-7.604,7.604l0,0c0,4.199,3.405,7.604,7.604,7.604h75.017
	c23.458,0,42.475,19.017,42.475,42.476v147.224c0,23.458-19.017,42.475-42.476,42.475H166.91c-4.199,0-7.604,3.405-7.604,7.604l0,0
	c0,4.199,3.405,7.604,7.604,7.604h287.407c31.857,0,57.683-25.826,57.683-57.684V182.389
	C512,150.531,486.174,124.705,454.316,124.705z"/>
<path d="M495.335,242.997c0-29.218-23.771-52.989-52.99-52.989H392.97c-29.218,0-52.99,23.771-52.99,52.989
	c0,4.199,3.405,7.604,7.604,7.604h6.694c-0.295,2.498-0.453,5.021-0.453,7.558c0,35.197,28.635,63.833,63.833,63.833
	s63.833-28.635,63.833-63.833c0-2.538-0.158-5.06-0.453-7.558h6.694C491.932,250.601,495.335,247.197,495.335,242.997z
	 M392.971,205.216h49.376c18.228,0,33.484,12.977,37.012,30.178H355.958C359.487,218.193,374.741,205.216,392.971,205.216z
	 M466.283,258.16c0,26.812-21.813,48.625-48.625,48.625c-26.812,0-48.625-21.813-48.625-48.625c0-2.549,0.218-5.073,0.607-7.558
	h96.036C466.065,253.087,466.283,255.611,466.283,258.16z"/>
<path d="M164.415,250.601c4.199,0,7.604-3.405,7.604-7.604c0-29.218-23.771-52.989-52.989-52.989H69.654
	c-29.218,0-52.989,23.771-52.989,52.989c0,4.199,3.405,7.604,7.604,7.604h6.694c-0.295,2.498-0.453,5.022-0.453,7.558
	c0,35.197,28.636,63.833,63.833,63.833s63.833-28.635,63.833-63.833c0-2.538-0.158-5.06-0.453-7.558H164.415z M69.654,205.216
	h49.376c18.228,0,33.484,12.977,37.012,30.178H32.641C36.171,218.193,51.425,205.216,69.654,205.216z M142.967,258.16
	c0,26.812-21.813,48.625-48.625,48.625s-48.625-21.813-48.625-48.625c0-2.549,0.218-5.072,0.606-7.558h96.036
	C142.749,253.087,142.967,255.611,142.967,258.16z"/>
<path d="M333.678,242.997c0-29.218-23.771-52.989-52.989-52.989h-49.377c-29.218,0-52.989,23.771-52.989,52.989
	c0,4.199,3.405,7.604,7.604,7.604h6.695c-0.295,2.498-0.453,5.021-0.453,7.558c0,35.197,28.636,63.833,63.832,63.833
	c35.197,0,63.833-28.635,63.833-63.833c0-2.538-0.158-5.06-0.453-7.558h6.695C330.273,250.601,333.678,247.197,333.678,242.997z
	 M231.311,205.216h49.377c18.228,0,33.484,12.977,37.012,30.178H194.299C197.829,218.193,213.083,205.216,231.311,205.216z
	 M304.625,258.16c0,26.812-21.813,48.625-48.625,48.625s-48.624-21.813-48.624-48.625c0-2.55,0.218-5.073,0.606-7.558h96.036
	C304.407,253.086,304.625,255.61,304.625,258.16z"/>
<g>
</g>
<g>
</g>
<g>
</g>
<g>
</g>
<g>
</g>
<g>
</g>
<g>
</g>
<g>
</g>
<g>
</g>
<g>
</g>
<g>
</g>
<g>
</g>
<g>
</g>
<g>
</g>
<g>
</g>
</svg>
