<?xml version="1.0" encoding="iso-8859-1"?>
<!-- Generator: Adobe Illustrator 19.0.0, SVG Export Plug-In . SVG Version: 6.00 Build 0)  -->
<svg version="1.1" id="Capa_1" xmlns="http://www.w3.org/2000/svg" xmlns:xlink="http://www.w3.org/1999/xlink" x="0px" y="0px"
	 viewBox="0 0 512 512" style="enable-background:new 0 0 512 512;" xml:space="preserve">
<path style="fill:#93CC27;" d="M504.396,456.373V194.797c-94.292,0-124.702,56.776-250.42,56.776
	c-40.554,0-81.109-48.665-143.968-48.665S7.605,247.518,7.605,247.518v208.855"/>
<g>
	<ellipse style="fill:#3E8914;" cx="442.55" cy="285.027" rx="26.36" ry="41.568"/>
	<ellipse style="fill:#3E8914;" cx="87.699" cy="262.215" rx="18.32" ry="28.887"/>
</g>
<path style="fill:#76DBFF;" d="M329.001,457.114c57.746-66.252-72.998-112.266-83.136-146.737s52.647-61.434,52.647-61.434
	l-44.536,2.63c-66.915,22.305-104.428,55.762-83.136,77.053s91.247,74.48-16.222,128.487"/>
<path style="fill:#6E8292;" d="M145.494,54.885l110.512,139.913L368.541,54.885l135.855,139.913
	c-94.292,0-124.702,56.776-250.42,56.776c-40.554,0-81.109-48.665-143.968-48.665S7.605,247.518,7.605,247.518L145.494,54.885z"/>
<g>
	<path style="fill:#475D62;" d="M118.119,148.16l40.554,4.055l-13.88,55.641c-10.838-3.052-22.376-4.948-34.786-4.948
		c-61.876,0-101.163,43.231-102.369,44.579L145.493,54.885L118.119,148.16z"/>
	<path style="fill:#475D62;" d="M318.863,178.575l44.61-6.083l-22.011,68c-23.927,6.529-51.889,11.081-87.486,11.081
		c-11.72,0-23.44-4.066-35.708-9.855l37.736-46.921l34.147-42.45l78.392-97.462L318.863,178.575z"/>
</g>
<path d="M213.5,390.154c-4.17-0.46-7.932,2.549-8.393,6.723c-2.046,18.515-20.182,36.497-53.905,53.444
	c-3.752,1.886-5.266,6.456-3.379,10.209c1.335,2.657,4.016,4.191,6.8,4.191c1.148,0,2.313-0.261,3.409-0.811
	c39.163-19.681,59.506-41.061,62.192-65.361C220.685,394.372,217.676,390.615,213.5,390.154z"/>
<path d="M509.851,189.5l-76.872-79.168l-10.911,10.594l64.968,66.909c-36.148,2.723-63.109,13.712-91.43,25.257
	c-13.563,5.529-27.301,11.122-42.461,16.005l17.561-54.263c0.805-2.488,0.275-5.215-1.402-7.221s-4.268-3.008-6.86-2.655
	l-31.653,4.316l40.444-100.699l33.783,34.792l10.911-10.594l-41.933-43.185c-1.518-1.563-3.63-2.401-5.809-2.298
	c-2.177,0.101-4.204,1.132-5.571,2.83L256.058,182.597L151.461,50.171c-1.481-1.876-3.763-2.946-6.147-2.888
	c-2.389,0.057-4.612,1.233-6.003,3.175L1.421,243.091c-2.355,3.29-1.722,7.847,1.442,10.371c3.163,2.522,7.747,2.126,10.432-0.9
	c0.373-0.421,37.955-42.05,96.713-42.05c32.954,0,60.19,14.558,84.219,27.402c11.102,5.934,21.87,11.686,32.587,15.709
	c-39.157,16.414-64.309,36.438-68.807,55.492c-2.178,9.227,0.399,17.834,7.455,24.888c1.726,1.726,3.745,3.641,5.883,5.667
	c9.371,8.884,22.206,21.052,29.132,34.956c1.33,2.671,4.018,4.215,6.812,4.215c1.14,0,2.296-0.258,3.384-0.8
	c3.759-1.873,5.288-6.438,3.416-10.197c-8.125-16.309-22.087-29.546-32.281-39.211c-2.062-1.955-4.01-3.802-5.592-5.385
	c-3.311-3.312-4.363-6.593-3.407-10.64c3.288-13.928,30.066-35.795,82.456-53.442c3.683-0.011,7.296-0.067,10.827-0.173
	c-17.094,12.572-34.061,31.3-27.522,53.529c4.039,13.735,21.123,26.845,40.905,42.025c25.319,19.431,54.016,41.455,56.425,65.544
	c1.058,10.584-3.073,21.06-12.631,32.025c-2.76,3.166-2.429,7.969,0.736,10.729c1.441,1.256,3.221,1.872,4.993,1.872
	c2.121,0,4.232-0.883,5.735-2.608c12.293-14.104,17.777-28.75,16.3-43.531c-3.063-30.636-34.534-54.787-62.3-76.095
	c-16.19-12.425-32.932-25.273-35.573-34.252c-6.614-22.489,31.202-44.696,47.472-51.916c42.635-5.469,73.063-17.869,100.716-29.141
	c31.255-12.74,60.777-24.774,103.048-24.774c3.055,0,5.813-1.828,7.004-4.642C512.589,194.945,511.979,191.692,509.851,189.5z
	 M312.866,183.251c1.665,2.135,4.338,3.225,7.024,2.859l32.623-4.449l-17.014,52.571c-22.511,5.818-48.598,9.738-81.523,9.738
	c-7.62,0-15.406-2.022-23.549-5.238l65.646-81.617l0,0l46.369-57.649l-30.635,76.277
	C310.798,178.255,311.201,181.115,312.866,183.251z M42.082,212.416l83.482-116.624l-14.742,50.227
	c-0.638,2.171-0.275,4.513,0.99,6.389c1.264,1.877,3.298,3.093,5.55,3.318l31.805,3.18l-9.899,39.69
	c-9.206-2.066-18.927-3.291-29.26-3.291C82.751,195.304,59.76,203.134,42.082,212.416z M153.923,202.678l12.128-48.623
	c0.534-2.142,0.112-4.411-1.16-6.217c-1.27-1.806-3.264-2.97-5.462-3.19l-31.433-3.143l20.65-70.362l97.635,123.611l-30.141,37.473
	c-4.759-2.392-9.66-5.007-14.746-7.726C186.923,216.766,171.359,208.449,153.923,202.678z"/>
<path d="M442.554,235.858c-19.045,0-33.964,21.599-33.964,49.172c0,23.775,11.096,43.094,26.36,47.97v30.097
	c0,4.199,3.405,7.604,7.604,7.604s7.604-3.405,7.604-7.604V333c15.265-4.876,26.36-24.195,26.36-47.97
	C476.518,257.458,461.599,235.858,442.554,235.858z M442.554,318.995c-9.992,0-18.756-15.871-18.756-33.964
	c0-18.093,8.765-33.964,18.756-33.964c9.992,0,18.756,15.871,18.756,33.964C461.31,303.124,452.545,318.995,442.554,318.995z"/>
<path d="M87.703,225.72c-14.536,0-25.922,16.028-25.922,36.49c0,16.722,7.606,30.477,18.318,34.949v19.301
	c0,4.199,3.405,7.604,7.604,7.604s7.604-3.405,7.604-7.604v-19.301c10.712-4.472,18.318-18.228,18.318-34.949
	C113.625,241.748,102.239,225.72,87.703,225.72z M87.703,283.493c-6.034,0-10.714-11.44-10.714-21.283
	c0-9.842,4.68-21.282,10.714-21.282c6.035,0,10.714,11.44,10.714,21.282C98.417,272.052,93.736,283.493,87.703,283.493z"/>
<g>
</g>
<g>
</g>
<g>
</g>
<g>
</g>
<g>
</g>
<g>
</g>
<g>
</g>
<g>
</g>
<g>
</g>
<g>
</g>
<g>
</g>
<g>
</g>
<g>
</g>
<g>
</g>
<g>
</g>
</svg>
