<?xml version="1.0" encoding="iso-8859-1"?>
<!-- Generator: Adobe Illustrator 19.0.0, SVG Export Plug-In . SVG Version: 6.00 Build 0)  -->
<svg version="1.1" id="Capa_1" xmlns="http://www.w3.org/2000/svg" xmlns:xlink="http://www.w3.org/1999/xlink" x="0px" y="0px"
	 viewBox="0 0 511.999 511.999" style="enable-background:new 0 0 511.999 511.999;" xml:space="preserve">
<path style="fill:#434251;" d="M488.591,371.404l-163.039,49.284H191.651L25.134,371.404l10.889-54.749l2.372-11.903
	c3.478-17.449,16.84-31.237,34.157-35.272l102.339-23.795l15.786-50.997c6.286-20.318,25.073-34.167,46.344-34.167h147.091
	c18.452,0,34.735,12.065,40.098,29.716l22.001,72.359l33.853,9.449l3.832,44.61L488.591,371.404z"/>
<path style="fill:#E6E6E6;" d="M483.897,316.655H36.023l2.372-11.903c3.478-17.449,16.84-31.237,34.157-35.272l102.339-23.795
	l15.786-50.997c6.286-20.318,25.073-34.167,46.344-34.167h147.091c18.452,0,34.735,12.065,40.098,29.716l22.001,72.359l33.853,9.449
	L483.897,316.655z"/>
<g>
	<path style="fill:#9AA7B8;" d="M432.319,371.403h47.434c13.609,0,24.642,11.033,24.642,24.642l0,0
		c0,13.609-11.033,24.642-24.642,24.642h-37.559"/>
	<path style="fill:#9AA7B8;" d="M74.994,420.686H32.245c-13.609,0-24.642-11.033-24.642-24.642l0,0
		c0-13.609,11.033-24.642,24.642-24.642h52.624"/>
</g>
<path style="fill:#8292A3;" d="M39.722,396.045L39.722,396.045c0-13.609,11.033-24.642,24.642-24.642H32.245
	c-13.609,0-24.642,11.033-24.642,24.642l0,0c0,13.609,11.033,24.642,24.642,24.642h32.119
	C50.755,420.686,39.722,409.654,39.722,396.045z"/>
<circle style="fill:#F0C800;" cx="87.698" cy="316.649" r="19.263"/>
<path style="fill:#A0D9F2;" d="M414.274,263.21l-26.729-72.275H237.019c-7.933,0-14.942,5.168-17.288,12.746l-15.784,50.995
	l-2.641,8.534H414.274z"/>
<g>
	<circle style="fill:#2C4046;" cx="132.145" cy="412.033" r="59.498"/>
	<circle style="fill:#2C4046;" cx="385.053" cy="412.033" r="59.498"/>
</g>
<g>
	<circle style="fill:#9AA7B8;" cx="132.145" cy="412.033" r="26.667"/>
	<circle style="fill:#9AA7B8;" cx="385.053" cy="412.033" r="26.667"/>
</g>
<path style="fill:#0084BC;" d="M268.837,136.37l2.383-27.841c0.679-7.959,7.34-14.072,15.33-14.072h26.492
	c7.989,0,14.65,6.114,15.33,14.072l2.383,27.841"/>
<path style="fill:#16A2D3;" d="M311.897,94.457h-25.349c-7.989,0-14.65,6.114-15.33,14.072l-2.383,27.841h25.349l2.383-27.841
	C297.247,100.571,303.908,94.457,311.897,94.457z"/>
<rect x="246.174" y="136.374" style="fill:#292735;" width="107.246" height="24.144"/>
<path d="M495.944,368.176l-8.305-96.782c-0.272-3.161-2.476-5.821-5.532-6.674l-29.837-8.328l-20.784-68.368
	c-6.384-20.999-25.421-35.109-47.37-35.109h-23.097v-16.54c0-4.199-3.405-7.604-7.604-7.604h-15.681l-1.787-20.888
	c-1.023-11.989-10.871-21.03-22.906-21.03h-26.492c-12.036,0-21.883,9.041-22.906,21.027l-1.787,20.89h-15.68
	c-4.199,0-7.604,3.405-7.604,7.604v16.54h-1.552c-24.747,0-46.291,15.884-53.608,39.524l-14.494,46.826l-98.086,22.811
	c-20.186,4.694-35.843,20.861-39.888,41.186l-12.684,63.73c-11.009,5.322-18.553,16.72-18.25,29.811
	c0.408,17.621,15.277,31.486,32.902,31.486h34.135c7.288,29.169,33.706,50.843,65.1,50.843s57.811-21.674,65.099-50.843h9.586
	c4.199,0,7.604-3.405,7.604-7.604l0,0c0-4.199-3.405-7.604-7.604-7.604h-7.61c0.005-0.351,0.026-0.699,0.026-1.051
	c0-37-30.102-67.102-67.102-67.102c-18.425,0-35.136,7.468-47.274,19.531v-0.662H34.399l7.871-39.54h19.665
	c3.289,11.121,13.591,19.262,25.764,19.262s22.475-8.14,25.764-19.262h266.739c4.199,0,7.604-3.405,7.604-7.604l0,0
	c0-4.199-3.405-7.604-7.604-7.604H113.463c-3.288-11.123-13.591-19.264-25.765-19.264s-22.477,8.142-25.765,19.264H45.296
	l0.562-2.82c2.882-14.481,14.037-25.998,28.418-29.343l102.337-23.799c2.633-0.612,4.743-2.576,5.542-5.158l15.785-50.995
	c5.302-17.132,21.146-28.813,39.08-28.813h147.097c15.101,0,28.427,9.876,32.819,24.325l21.998,72.358
	c0.756,2.486,2.728,4.413,5.232,5.112l28.773,8.032l2.668,31.102h-59.92c-4.199,0-7.604,3.405-7.604,7.604l0,0
	c0,4.199,3.405,7.604,7.604,7.604h61.225l3.394,39.553c-0.185-0.003-0.367-0.014-0.553-0.014h-47.433v0.657
	c-12.138-12.061-28.847-19.527-47.269-19.527c-37.001,0-67.102,30.102-67.102,67.102c0,0.353,0.021,0.7,0.026,1.051h-75.658
	c-4.199,0-7.604,3.405-7.604,7.604l0,0c0,4.199,3.405,7.604,7.604,7.604h77.634c7.288,29.169,33.706,50.843,65.1,50.843
	s57.811-21.674,65.099-50.843h28.955c17.716,0,32.611-14.015,32.891-31.728C512.185,384.465,505.674,373.851,495.944,368.176z
	 M87.698,304.995c6.429,0,11.659,5.23,11.659,11.659c0,6.429-5.231,11.659-11.659,11.659c-6.429,0-11.659-5.23-11.659-11.659
	C76.038,310.225,81.269,304.995,87.698,304.995z M32.245,413.082c-9.395,0-17.038-7.643-17.038-17.038
	c0-9.394,7.644-17.038,17.038-17.038h41.522c-5.542,9.758-8.724,21.023-8.724,33.025c0,0.353,0.021,0.7,0.026,1.051H32.245z
	 M132.144,360.137c28.614,0,51.894,23.279,51.894,51.894c0,28.615-23.279,51.895-51.894,51.895S80.25,440.646,80.25,412.031
	C80.25,383.416,103.529,360.137,132.144,360.137z M278.795,109.176c0.347-4.056,3.679-7.115,7.753-7.115h26.492
	c4.074,0,7.407,3.059,7.753,7.117l1.677,19.592h-45.353L278.795,109.176z M253.779,152.915v-8.936h92.033v8.936H253.779z
	 M385.05,463.926c-28.615,0-51.895-23.279-51.895-51.895c0-28.615,23.279-51.894,51.895-51.894
	c28.614,0,51.895,23.279,51.895,51.894C436.945,440.646,413.664,463.926,385.05,463.926z M479.753,413.082h-27.628
	c0.005-0.351,0.026-0.699,0.026-1.051c0-12.001-3.183-23.267-8.724-33.025h36.326c9.394,0,17.038,7.644,17.038,17.038
	C496.791,405.439,489.147,413.082,479.753,413.082z"/>
<path d="M420.514,267.556c1.421-2.042,1.754-4.65,0.891-6.982l-26.729-72.275c-1.103-2.985-3.95-4.966-7.132-4.966H237.018
	c-11.334,0-21.201,7.274-24.553,18.102l-18.425,59.529c-0.715,2.308-0.29,4.817,1.144,6.76c1.434,1.944,3.705,3.091,6.121,3.091
	h212.969C416.761,270.814,419.091,269.598,420.514,267.556z M226.994,205.93c1.369-4.421,5.397-7.391,10.025-7.391h70.179v57.067
	h-95.581L226.994,205.93z M322.407,255.606v-57.067h59.842l21.105,57.067H322.407z"/>
<path d="M292.498,286.745c-4.199,0-7.604,3.405-7.604,7.604c0,4.199,3.405,7.604,7.604,7.604h28.388
	c4.199,0,7.604-3.405,7.604-7.604c0-4.199-3.405-7.604-7.604-7.604H292.498z"/>
<path d="M132.144,446.302c18.896,0,34.271-15.373,34.271-34.271s-15.374-34.271-34.271-34.271s-34.271,15.373-34.271,34.271
	S113.248,446.302,132.144,446.302z M132.144,392.968c10.511,0,19.063,8.551,19.063,19.063c0,10.512-8.552,19.063-19.063,19.063
	c-10.511,0-19.063-8.551-19.063-19.063C113.082,401.519,121.634,392.968,132.144,392.968z"/>
<path d="M385.05,377.761c-18.896,0-34.271,15.373-34.271,34.271s15.374,34.271,34.271,34.271c18.896,0,34.271-15.373,34.271-34.271
	S403.946,377.761,385.05,377.761z M385.05,431.094c-10.511,0-19.063-8.551-19.063-19.063c0-10.512,8.552-19.063,19.063-19.063
	s19.063,8.551,19.063,19.063C404.113,422.543,395.561,431.094,385.05,431.094z"/>
<path d="M299.795,70.984c4.199,0,7.604-3.405,7.604-7.604V40.47c0-4.199-3.405-7.604-7.604-7.604s-7.604,3.405-7.604,7.604v22.91
	C292.192,67.58,295.596,70.984,299.795,70.984z"/>
<path d="M257.286,74.372c1.283,2.783,4.034,4.423,6.91,4.423c1.065,0,2.147-0.225,3.177-0.7c3.814-1.757,5.481-6.274,3.724-10.088
	L261.51,47.2c-1.757-3.814-6.275-5.481-10.088-3.724c-3.814,1.757-5.481,6.274-3.724,10.088L257.286,74.372z"/>
<path d="M212.519,84.419l17.475,14.816c1.43,1.212,3.175,1.805,4.913,1.805c2.156,0,4.3-0.912,5.804-2.687
	c2.716-3.203,2.321-8.001-0.883-10.718l-17.475-14.816c-3.205-2.716-8.002-2.321-10.718,0.883
	C208.92,76.905,209.315,81.703,212.519,84.419z"/>
<path d="M332.216,78.096c1.031,0.476,2.112,0.7,3.177,0.7c2.876,0,5.628-1.64,6.91-4.423l9.588-20.807
	c1.757-3.814,0.09-8.331-3.724-10.088c-3.816-1.758-8.33-0.09-10.088,3.724l-9.588,20.807
	C326.735,71.821,328.402,76.338,332.216,78.096z"/>
<path d="M364.684,101.039c1.738,0,3.485-0.592,4.913-1.805l17.474-14.816c3.204-2.716,3.598-7.514,0.883-10.718
	c-2.716-3.203-7.515-3.598-10.718-0.882l-17.474,14.816c-3.204,2.716-3.598,7.514-0.883,10.718
	C360.384,100.127,362.527,101.039,364.684,101.039z"/>
<g>
</g>
<g>
</g>
<g>
</g>
<g>
</g>
<g>
</g>
<g>
</g>
<g>
</g>
<g>
</g>
<g>
</g>
<g>
</g>
<g>
</g>
<g>
</g>
<g>
</g>
<g>
</g>
<g>
</g>
</svg>
